<svg width="42" height="42" viewBox="0 0 42 42" fill="none" xmlns="http://www.w3.org/2000/svg">
<g clip-path="url(#clip0_254_1751)">
<path d="M0.00957025 18.2979C-0.0816485 19.032 0.490848 19.6802 1.23061 19.6802H6.23664C6.52765 19.6802 6.80922 19.577 7.03137 19.389C7.25352 19.2011 7.40186 18.9405 7.45005 18.6535C8.41351 12.9158 12.9157 8.41351 18.6534 7.45013C18.9404 7.40194 19.201 7.25359 19.389 7.03142C19.5769 6.80926 19.6801 6.52766 19.6801 6.23664V1.23061C19.6801 0.490848 19.032 -0.0816485 18.2979 0.00957025C13.682 0.583215 9.32135 2.71759 6.01943 6.01943C2.71759 9.32135 0.583215 13.682 0.00957025 18.2979ZM28.8402 32.0479C26.5048 33.7155 23.7663 34.5968 20.9209 34.5968C14.2254 34.5968 8.56018 29.7988 7.45013 23.1881C7.40194 22.9011 7.2536 22.6405 7.03145 22.4525C6.80931 22.2645 6.52773 22.1614 6.23673 22.1614H1.23061C0.490848 22.1614 -0.0816485 22.8094 0.00957025 23.5435V23.5436C1.31723 34.0654 10.3071 42 20.9209 42C25.6492 42 30.1207 40.4652 33.8521 37.5618C34.4362 37.1073 34.4898 36.2438 33.9666 35.7206L30.4253 32.1793C30.2193 31.9733 29.947 31.8471 29.6568 31.8231C29.3666 31.799 29.0772 31.8787 28.8402 32.0479ZM23.1881 7.45013C29.7987 8.56018 34.5969 14.2254 34.5969 20.9209C34.5969 23.7663 33.7155 26.5047 32.048 28.8402C31.8788 29.0772 31.7991 29.3665 31.8232 29.6568C31.8472 29.947 31.9734 30.2193 32.1794 30.4252L35.7208 33.9667C36.2441 34.4899 37.1075 34.4362 37.5619 33.8522L37.562 33.8521C40.4653 30.1209 42 25.6493 42 20.9209C42 10.3071 34.0654 1.31723 23.5436 0.00957025H23.5435C22.8094 -0.0816485 22.1613 0.490848 22.1613 1.23061V6.23664C22.1613 6.52767 22.2645 6.80927 22.4524 7.03143C22.6404 7.25359 22.9011 7.40194 23.1881 7.45013Z" fill="#B02E0C"/>
<path d="M21.741 12.4658H20.0994C19.4199 12.4658 18.869 13.0167 18.869 13.6963V28.0516H22.9715V13.6963C22.9715 13.0167 22.4206 12.4658 21.741 12.4658ZM25.4324 28.0516H28.3045C28.9841 28.0516 29.535 27.5007 29.535 26.8211V16.9775C29.535 16.2979 28.9841 15.747 28.3045 15.747H25.4324V28.0516ZM16.408 19.0282H13.5391C12.8595 19.0282 12.3086 19.5792 12.3086 20.2587V26.8211C12.3086 27.5007 12.8595 28.0516 13.5391 28.0516H16.408V19.0282Z" fill="#B02E0C"/>
</g>
<defs>
<clipPath id="clip0_254_1751">
<rect width="42" height="42" fill="white"/>
</clipPath>
</defs>
</svg>
