<svg width="17" height="17" viewBox="0 0 17 17" fill="none" xmlns="http://www.w3.org/2000/svg">
<path d="M15.7487 11.9719C15.0643 11.2687 13.119 9.95156 11.844 9.95156C11.5487 9.95156 11.2909 10.0172 11.08 10.1531C10.4565 10.5516 9.95966 10.8609 9.7206 10.8609C9.58935 10.8609 9.44872 10.7437 9.13935 10.4766L9.08778 10.4297C8.22997 9.68437 8.04716 9.49219 7.71435 9.14531L7.62997 9.05625C7.56904 8.99531 7.51747 8.93906 7.46591 8.8875C7.17529 8.5875 6.96435 8.37188 6.21904 7.52813L6.18622 7.49062C5.82997 7.0875 5.5956 6.825 5.58153 6.63281C5.56747 6.44531 5.73154 6.14062 6.14872 5.57344C6.65497 4.88906 6.67372 4.04531 6.20966 3.06563C5.83935 2.29219 5.23466 1.55156 4.70028 0.9L4.65341 0.84375C4.19404 0.28125 3.65966 0 3.06435 0C2.40341 0 1.85497 0.35625 1.56435 0.54375C1.54091 0.557812 1.51747 0.576562 1.49404 0.590625C0.842473 1.00312 0.369035 1.57031 0.19091 2.14688C-0.0762775 3.01406 -0.254402 4.13906 1.02529 6.47813C2.13154 8.50313 3.13466 9.8625 4.72841 11.4984C6.22841 13.0359 6.89403 13.5328 8.38466 14.6109C10.044 15.8109 11.6378 16.5 12.7534 16.5C13.7893 16.5 14.605 16.5 15.7675 15.0984C16.9862 13.6266 16.48 12.7266 15.7487 11.9719Z" fill="#B02E0C"/>
</svg>
