<svg width="42" height="42" viewBox="0 0 42 42" fill="none" xmlns="http://www.w3.org/2000/svg">
<g clip-path="url(#clip0_254_1915)">
<path d="M32.8177 24.4549C32.636 24.4549 32.4489 24.4811 32.2616 24.5327L31.5572 24.7268L30.5194 22.1989C29.9376 20.7818 28.2179 19.6289 26.6859 19.6289H15.2958C13.7638 19.6289 12.044 20.782 11.4624 22.1991L10.4264 24.7223L9.73884 24.5329C9.5578 24.4821 9.37074 24.456 9.18271 24.4551C8.26889 24.4551 7.60547 25.1107 7.60547 26.0139C7.60547 26.9055 8.25623 27.6562 9.13823 27.8817C8.65458 29.2173 8.27872 31.2194 8.27872 32.5348V37.9139C8.27872 39.0623 9.21287 39.9965 10.3613 39.9965H11.1248C12.2732 39.9965 13.2074 39.0623 13.2074 37.9139V36.9076H28.7741V37.9139C28.7741 39.0623 29.7082 39.9965 30.8566 39.9965H31.6205C32.7689 39.9965 33.7031 39.0623 33.7031 37.9139V32.5348C33.7031 31.2207 33.3279 29.2213 32.8451 27.8857C33.7357 27.6657 34.395 26.911 34.395 26.0139C34.3948 25.1105 33.7316 24.4549 32.8177 24.4549ZM11.7211 26.554L13.414 22.4299C13.762 21.5822 14.7965 20.8886 15.7128 20.8886H26.2693C27.1857 20.8886 28.2201 21.5822 28.5681 22.4299L30.261 26.554C30.6091 27.4017 30.1441 28.0952 29.2277 28.0952H12.7544C11.8381 28.0952 11.3731 27.4017 11.7211 26.554ZM16.2094 33.26C16.2094 33.7181 15.8346 34.093 15.3764 34.093H11.9214C11.4632 34.093 11.0883 33.7181 11.0883 33.26V31.882C11.0883 31.4238 11.4632 31.049 11.9214 31.049H15.3764C15.8346 31.049 16.2094 31.4238 16.2094 31.882V33.26ZM30.8558 33.26C30.8558 33.7181 30.4809 34.093 30.0228 34.093H26.5681C26.1099 34.093 25.735 33.7181 25.735 33.26V31.882C25.735 31.4238 26.1099 31.049 26.5681 31.049H30.0228C30.4809 31.049 30.8558 31.4238 30.8558 31.882V33.26Z" fill="#B02E0C"/>
<path d="M41.0755 11.9187L21.9293 0.695758C21.6752 0.546813 21.3452 0.464844 21 0.464844C20.6548 0.464844 20.3248 0.546813 20.0707 0.695758L0.924489 11.9187C0.397518 12.2276 0 12.9214 0 13.5323V40.286C0 40.9749 0.560458 41.5355 1.24953 41.5355H3.40073C4.08981 41.5355 4.65027 40.9749 4.65027 40.286V17.6464C4.65027 17.4169 4.83703 17.2299 5.06678 17.2299H36.9329C37.1626 17.2299 37.3494 17.4169 37.3494 17.6464V40.286C37.3494 40.9749 37.9099 41.5355 38.5989 41.5355H40.7503C41.4394 41.5355 41.9998 40.9749 41.9998 40.286V13.5323C42 12.9214 41.6025 12.2276 41.0755 11.9187Z" fill="#B02E0C"/>
</g>
<defs>
<clipPath id="clip0_254_1915">
<rect width="42" height="42" fill="white"/>
</clipPath>
</defs>
</svg>
