<svg width="42" height="42" viewBox="0 0 42 42" fill="none" xmlns="http://www.w3.org/2000/svg">
<g clip-path="url(#clip0_254_1734)">
<path d="M16.1874 0H3.06239C1.3737 0 0 1.3737 0 3.06239V10.9374C0 12.6264 1.3737 14.0001 3.06239 14.0001H16.1874C17.8764 14.0001 19.2501 12.6264 19.2501 10.9374V3.06239C19.2501 1.3737 17.8764 0 16.1874 0ZM16.1874 17.4999H3.06239C1.3737 17.4999 0 18.8736 0 20.5626V38.9376C0 40.6263 1.3737 42 3.06239 42H16.1874C17.8764 42 19.2501 40.6263 19.2501 38.9376V20.5626C19.2501 18.8736 17.8764 17.4999 16.1874 17.4999ZM38.9376 27.9999H25.8126C24.1236 27.9999 22.7499 29.3736 22.7499 31.0626V38.9376C22.7499 40.6263 24.1236 42 25.8126 42H38.9376C40.6263 42 42 40.6263 42 38.9376V31.0626C42 29.3736 40.6263 27.9999 38.9376 27.9999ZM38.9376 0H25.8126C24.1236 0 22.7499 1.3737 22.7499 3.06239V21.4374C22.7499 23.1264 24.1236 24.5001 25.8126 24.5001H38.9376C40.6263 24.5001 42 23.1264 42 21.4374V3.06239C42 1.3737 40.6263 0 38.9376 0Z" fill="#B02E0C"/>
</g>
<defs>
<clipPath id="clip0_254_1734">
<rect width="42" height="42" fill="white"/>
</clipPath>
</defs>
</svg>
