<svg width="42" height="42" viewBox="0 0 42 42" fill="none" xmlns="http://www.w3.org/2000/svg">
<g clip-path="url(#clip0_254_1738)">
<path d="M8.07495 28.916C8.07495 28.2786 7.55877 27.7624 6.92138 27.7624H1.15356C0.516181 27.7624 0 28.2786 0 28.916V38.2214C0 38.8588 0.516181 39.375 1.15356 39.375H6.92138C7.55877 39.375 8.07495 38.8588 8.07495 38.2214V28.916ZM17.3804 20.8411H11.6125C10.9752 20.8411 10.459 21.3572 10.459 21.9946V38.2214C10.459 38.8588 10.9752 39.375 11.6125 39.375H17.3804C18.0177 39.375 18.5339 38.8588 18.5339 38.2214V21.9946C18.5339 21.3572 18.0177 20.8411 17.3804 20.8411ZM27.7624 18.5339H21.9946C21.3572 18.5339 20.8411 19.0501 20.8411 19.6875V38.2214C20.8411 38.8588 21.3572 39.375 21.9946 39.375H27.7624C28.3998 39.375 28.916 38.8588 28.916 38.2214V19.6875C28.916 19.0501 28.3998 18.5339 27.7624 18.5339ZM38.2214 9.30542H32.4536C31.8162 9.30542 31.3 9.8216 31.3 10.459V38.2214C31.3 38.8588 31.8162 39.375 32.4536 39.375H38.2214C38.8588 39.375 39.375 38.8588 39.375 38.2214V10.459C39.375 9.8216 38.8588 9.30542 38.2214 9.30542Z" fill="#B02E0C"/>
<path d="M4.11304 25.3784C6.02125 25.3784 7.57373 23.8259 7.57373 21.9177C7.57373 21.5935 7.51466 21.2861 7.43099 20.9886L11.9255 17.8158C12.4898 18.2165 13.1752 18.457 13.9183 18.457C15.6691 18.457 17.1048 17.1458 17.3324 15.4563L21.9346 14.4873C22.5438 15.4803 23.6296 16.1499 24.8772 16.1499C26.7854 16.1499 28.3379 14.5974 28.3379 12.6892C28.3379 12.2278 28.2431 11.7889 28.0789 11.3861L33.5998 6.47872C34.0949 6.75195 34.6549 6.92138 35.2593 6.92138C37.1675 6.92138 38.72 5.3689 38.72 3.46069C38.72 1.55248 37.1675 0 35.2593 0C33.3511 0 31.7986 1.55248 31.7986 3.46069C31.7986 3.92212 31.8933 4.36096 32.0576 4.76376L26.5367 9.67117C26.0415 9.39795 25.4816 9.22851 24.8772 9.22851C23.1264 9.22851 21.6907 10.5398 21.4631 12.2292L16.8609 13.1982C16.2517 12.2052 15.1659 11.5356 13.9183 11.5356C12.0101 11.5356 10.4576 13.0881 10.4576 14.9963C10.4576 15.3206 10.5167 15.6279 10.6004 15.9255L6.10584 19.0982C5.54155 18.6976 4.85612 18.457 4.11304 18.457C2.20483 18.457 0.652344 20.0095 0.652344 21.9177C0.652344 23.8259 2.20483 25.3784 4.11304 25.3784Z" fill="#B02E0C"/>
</g>
<defs>
<clipPath id="clip0_254_1738">
<rect width="42" height="42" fill="white"/>
</clipPath>
</defs>
</svg>
