<svg width="42" height="42" viewBox="0 0 42 42" fill="none" xmlns="http://www.w3.org/2000/svg">
<path d="M22.2305 28.3828C22.9099 28.3828 23.4609 27.8319 23.4609 27.1523V22.2305C23.4609 21.551 22.9102 21 22.2305 21H19.7695C19.0901 21 18.5391 21.5508 18.5391 22.2305V27.1523C18.5391 27.8318 19.09 28.3828 19.7695 28.3828H22.2305Z" fill="#B02E0C"/>
<path d="M38.3086 7.46484H29.6133V6.23438C29.6133 4.19885 27.9575 2.54297 25.9219 2.54297H16.0781C14.0426 2.54297 12.3867 4.19877 12.3867 6.23438V7.46484H3.69141C1.65588 7.46484 0 9.12064 0 11.1562C0 13.5661 0.295313 15.6765 0.881672 17.475C1.46803 19.2736 2.34552 20.7603 3.50995 21.9229C5.46943 23.8797 7.96532 24.6914 10.7678 24.6914H16.0781V22.2305C16.0781 20.1949 17.7339 18.5391 19.7695 18.5391H22.2305C24.266 18.5391 25.9219 20.1949 25.9219 22.2305V24.6914H28.6559C31.1053 24.5896 35.112 25.3344 38.4888 21.9733C39.6538 20.8137 40.5316 19.3243 41.1182 17.5174C41.7048 15.7104 42 13.5859 42 11.1562C42 9.12073 40.3442 7.46484 38.3086 7.46484ZM14.8477 6.23438C14.8477 5.55548 15.3992 5.00391 16.0781 5.00391H25.9219C26.6008 5.00391 27.1523 5.5554 27.1523 6.23438V7.46484H14.8477V6.23438Z" fill="#B02E0C"/>
<path d="M28.6895 27.1523H25.9219C25.9219 29.1878 24.2661 30.8437 22.2305 30.8437H19.7695C17.734 30.8437 16.0781 29.1879 16.0781 27.1523H10.7786C7.26895 27.1523 4.1863 26.0754 1.77114 23.664C1.08888 22.9829 0.506297 22.216 0 21.3958V38.2265C0 38.9066 0.550348 39.457 1.23047 39.457H40.7695C41.4497 39.457 42 38.9066 42 38.2265V21.4464C41.4869 22.2791 40.9019 23.0442 40.2252 23.7181C36.3426 27.5803 32.2077 26.9861 28.6895 27.1523Z" fill="#B02E0C"/>
</svg>
