<svg width="1920" height="1087" viewBox="0 0 1920 1087" fill="none" xmlns="http://www.w3.org/2000/svg">
<g clip-path="url(#clip0_432_268)">
<rect width="1920" height="1087" fill="#EFE9E7"/>
<g opacity="0.53">
<mask id="mask0_432_268" style="mask-type:luminance" maskUnits="userSpaceOnUse" x="1588" y="735" width="332" height="362">
<path d="M1919.92 735H1588V1096.49H1919.92V735Z" fill="white"/>
</mask>
<g mask="url(#mask0_432_268)">
<g style="mix-blend-mode:color-dodge">
<g style="mix-blend-mode:overlay">
<path d="M1608.25 1155.55H1588V1153.5H1608.25V1155.55ZM1608.25 1145.94H1588V1141.54H1608.25V1145.94ZM1608.25 1133.98H1588V1129.57H1608.25V1133.98ZM1608.25 1122.01H1588V1117.61H1608.25V1122.01ZM1608.25 1110.05H1588V1105.64H1608.25V1110.05ZM1608.25 1098.08H1588V1093.68H1608.25V1098.08ZM1608.25 1086.12H1588V1081.71H1608.25V1086.12ZM1608.25 1074.15H1588V1069.75H1608.25V1074.15ZM1608.25 1062.19H1588V1057.78H1608.25V1062.19ZM1608.25 1050.22H1588V1045.82H1608.25V1050.22ZM1608.25 1038.26H1588V1033.85H1608.25V1038.26ZM1608.25 1026.29H1588V1021.89H1608.25V1026.29ZM1608.25 1014.33H1588V1009.92H1608.25V1014.33ZM1608.25 1002.37H1588V997.957H1608.25V1002.37ZM1608.25 990.4H1588V985.992H1608.25V990.4ZM1608.25 978.435H1588V974.027H1608.25V978.435ZM1608.25 966.47H1588V962.062H1608.25V966.47ZM1608.25 954.506H1588V950.097H1608.25V954.506ZM1608.25 942.541H1588V938.132H1608.25V942.541ZM1608.25 930.576H1588V926.167H1608.25V930.576ZM1608.25 918.611H1588V914.202H1608.25V918.611ZM1608.25 906.646H1588V902.237H1608.25V906.646ZM1608.25 894.681H1588V890.272H1608.25V894.681ZM1608.25 882.716H1588V878.308H1608.25V882.716ZM1608.25 870.751H1588V866.343H1608.25V870.751ZM1608.25 858.786H1588V854.378H1608.25V858.786ZM1608.25 846.822H1588V842.413H1608.25V846.822ZM1608.25 834.857H1588V830.448H1608.25V834.857ZM1608.25 822.892H1588V818.483H1608.25V822.892ZM1608.25 810.927H1588V806.518H1608.25V810.927ZM1608.25 798.962H1588V794.553H1608.25V798.962ZM1608.25 786.997H1588V782.588H1608.25V786.997Z" fill="url(#paint0_linear_432_268)"/>
</g>
<g style="mix-blend-mode:overlay">
<path d="M1651.09 1105.1H1630.84V1103.05H1651.09V1105.1ZM1651.09 1095.49H1630.84V1091.09H1651.09V1095.49ZM1651.09 1083.53H1630.84V1079.12H1651.09V1083.53ZM1651.09 1071.56H1630.84V1067.16H1651.09V1071.56ZM1651.09 1059.6H1630.84V1055.19H1651.09V1059.6ZM1651.09 1047.63H1630.84V1043.23H1651.09V1047.63ZM1651.09 1035.67H1630.84V1031.26H1651.09V1035.67ZM1651.09 1023.7H1630.84V1019.3H1651.09V1023.7ZM1651.09 1011.74H1630.84V1007.33H1651.09V1011.74ZM1651.09 999.775H1630.84V995.366H1651.09V999.775ZM1651.09 987.81H1630.84V983.402H1651.09V987.81ZM1651.09 975.845H1630.84V971.437H1651.09V975.845ZM1651.09 963.88H1630.84V959.472H1651.09V963.88ZM1651.09 951.915H1630.84V947.507H1651.09V951.915ZM1651.09 939.951H1630.84V935.542H1651.09V939.951ZM1651.09 927.986H1630.84V923.577H1651.09V927.986ZM1651.09 916.021H1630.84V911.612H1651.09V916.021ZM1651.09 904.056H1630.84V899.647H1651.09V904.056ZM1651.09 892.091H1630.84V887.682H1651.09V892.091ZM1651.09 880.126H1630.84V875.717H1651.09V880.126ZM1651.09 868.161H1630.84V863.753H1651.09V868.161ZM1651.09 856.196H1630.84V851.788H1651.09V856.196ZM1651.09 844.231H1630.84V839.823H1651.09V844.231ZM1651.09 832.266H1630.84V827.858H1651.09V832.266ZM1651.09 820.302H1630.84V815.893H1651.09V820.302ZM1651.09 808.337H1630.84V803.928H1651.09V808.337ZM1651.09 796.372H1630.84V791.963H1651.09V796.372ZM1651.09 784.407H1630.84V779.998H1651.09V784.407ZM1651.09 772.442H1630.84V768.033H1651.09V772.442ZM1651.09 760.477H1630.84V756.068H1651.09V760.477ZM1651.09 748.512H1630.84V744.104H1651.09V748.512ZM1651.09 736.547H1630.84V732.139H1651.09V736.547Z" fill="url(#paint1_linear_432_268)"/>
</g>
<g style="mix-blend-mode:overlay">
<path d="M1697.86 1152.05H1677.61V1150H1697.86V1152.05ZM1697.86 1142.44H1677.61V1138.03H1697.86V1142.44ZM1697.86 1130.48H1677.61V1126.07H1697.86V1130.48ZM1697.86 1118.51H1677.61V1114.1H1697.86V1118.51ZM1697.86 1106.55H1677.61V1102.14H1697.86V1106.55ZM1697.86 1094.58H1677.61V1090.17H1697.86V1094.58ZM1697.86 1082.62H1677.61V1078.21H1697.86V1082.62ZM1697.86 1070.65H1677.61V1066.24H1697.86V1070.65ZM1697.86 1058.69H1677.61V1054.28H1697.86V1058.69ZM1697.86 1046.72H1677.61V1042.31H1697.86V1046.72ZM1697.86 1034.76H1677.61V1030.35H1697.86V1034.76ZM1697.86 1022.79H1677.61V1018.38H1697.86V1022.79ZM1697.86 1010.83H1677.61V1006.42H1697.86V1010.83ZM1697.86 998.863H1677.61V994.455H1697.86V998.863ZM1697.86 986.898H1677.61V982.49H1697.86V986.898ZM1697.86 974.933H1677.61V970.525H1697.86V974.933ZM1697.86 962.969H1677.61V958.56H1697.86V962.969ZM1697.86 951.004H1677.61V946.595H1697.86V951.004ZM1697.86 939.039H1677.61V934.63H1697.86V939.039ZM1697.86 927.074H1677.61V922.665H1697.86V927.074ZM1697.86 915.109H1677.61V910.7H1697.86V915.109ZM1697.86 903.144H1677.61V898.735H1697.86V903.144ZM1697.86 891.179H1677.61V886.771H1697.86V891.179ZM1697.86 879.214H1677.61V874.806H1697.86V879.214ZM1697.86 867.249H1677.61V862.841H1697.86V867.249ZM1697.86 855.284H1677.61V850.876H1697.86V855.284ZM1697.86 843.32H1677.61V838.911H1697.86V843.32ZM1697.86 831.355H1677.61V826.946H1697.86V831.355ZM1697.86 819.39H1677.61V814.981H1697.86V819.39ZM1697.86 807.425H1677.61V803.016H1697.86V807.425ZM1697.86 795.46H1677.61V791.051H1697.86V795.46ZM1697.86 783.495H1677.61V779.086H1697.86V783.495Z" fill="url(#paint2_linear_432_268)"/>
</g>
<g style="mix-blend-mode:overlay">
<path d="M1740.7 1101.6H1720.45V1099.54H1740.7V1101.6ZM1740.7 1091.99H1720.45V1087.58H1740.7V1091.99ZM1740.7 1080.02H1720.45V1075.61H1740.7V1080.02ZM1740.7 1068.06H1720.45V1063.65H1740.7V1068.06ZM1740.7 1056.09H1720.45V1051.68H1740.7V1056.09ZM1740.7 1044.13H1720.45V1039.72H1740.7V1044.13ZM1740.7 1032.16H1720.45V1027.75H1740.7V1032.16ZM1740.7 1020.2H1720.45V1015.79H1740.7V1020.2ZM1740.7 1008.23H1720.45V1003.82H1740.7V1008.23ZM1740.7 996.269H1720.45V991.86H1740.7V996.269ZM1740.7 984.304H1720.45V979.895H1740.7V984.304ZM1740.7 972.339H1720.45V967.93H1740.7V972.339ZM1740.7 960.374H1720.45V955.965H1740.7V960.374ZM1740.7 948.409H1720.45V944.001H1740.7V948.409ZM1740.7 936.444H1720.45V932.036H1740.7V936.444ZM1740.7 924.479H1720.45V920.071H1740.7V924.479ZM1740.7 912.514H1720.45V908.106H1740.7V912.514ZM1740.7 900.55H1720.45V896.141H1740.7V900.55ZM1740.7 888.585H1720.45V884.176H1740.7V888.585ZM1740.7 876.62H1720.45V872.211H1740.7V876.62ZM1740.7 864.655H1720.45V860.246H1740.7V864.655ZM1740.7 852.69H1720.45V848.281H1740.7V852.69ZM1740.7 840.725H1720.45V836.316H1740.7V840.725ZM1740.7 828.76H1720.45V824.352H1740.7V828.76ZM1740.7 816.795H1720.45V812.387H1740.7V816.795ZM1740.7 804.83H1720.45V800.422H1740.7V804.83ZM1740.7 792.865H1720.45V788.457H1740.7V792.865ZM1740.7 780.901H1720.45V776.492H1740.7V780.901ZM1740.7 768.936H1720.45V764.527H1740.7V768.936ZM1740.7 756.971H1720.45V752.562H1740.7V756.971ZM1740.7 745.006H1720.45V740.597H1740.7V745.006ZM1740.7 733.041H1720.45V728.632H1740.7V733.041Z" fill="url(#paint3_linear_432_268)"/>
</g>
<g style="mix-blend-mode:overlay">
<path d="M1787.47 1148.54H1767.21V1146.49H1787.47V1148.54ZM1787.47 1138.94H1767.21V1134.53H1787.47V1138.94ZM1787.47 1126.97H1767.21V1122.56H1787.47V1126.97ZM1787.47 1115.01H1767.21V1110.6H1787.47V1115.01ZM1787.47 1103.04H1767.21V1098.63H1787.47V1103.04ZM1787.47 1091.08H1767.21V1086.67H1787.47V1091.08ZM1787.47 1079.11H1767.21V1074.7H1787.47V1079.11ZM1787.47 1067.15H1767.21V1062.74H1787.47V1067.15ZM1787.47 1055.18H1767.21V1050.77H1787.47V1055.18ZM1787.47 1043.22H1767.21V1038.81H1787.47V1043.22ZM1787.47 1031.25H1767.21V1026.84H1787.47V1031.25ZM1787.47 1019.29H1767.21V1014.88H1787.47V1019.29ZM1787.47 1007.32H1767.21V1002.91H1787.47V1007.32ZM1787.47 995.356H1767.21V990.948H1787.47V995.356ZM1787.47 983.391H1767.21V978.983H1787.47V983.391ZM1787.47 971.427H1767.21V967.018H1787.47V971.427ZM1787.47 959.462H1767.21V955.053H1787.47V959.462ZM1787.47 947.497H1767.21V943.088H1787.47V947.497ZM1787.47 935.532H1767.21V931.123H1787.47V935.532ZM1787.47 923.567H1767.21V919.158H1787.47V923.567ZM1787.47 911.602H1767.21V907.193H1787.47V911.602ZM1787.47 899.637H1767.21V895.229H1787.47V899.637ZM1787.47 887.672H1767.21V883.264H1787.47V887.672ZM1787.47 875.707H1767.21V871.299H1787.47V875.707ZM1787.47 863.743H1767.21V859.334H1787.47V863.743ZM1787.47 851.778H1767.21V847.369H1787.47V851.778ZM1787.47 839.813H1767.21V835.404H1787.47V839.813ZM1787.47 827.848H1767.21V823.439H1787.47V827.848ZM1787.47 815.883H1767.21V811.474H1787.47V815.883ZM1787.47 803.918H1767.21V799.509H1787.47V803.918ZM1787.47 791.953H1767.21V787.544H1787.47V791.953ZM1787.47 779.988H1767.21V775.58H1787.47V779.988Z" fill="url(#paint4_linear_432_268)"/>
</g>
<g style="mix-blend-mode:overlay">
<path d="M1830.31 1098.09H1810.06V1096.04H1830.31V1098.09ZM1830.31 1088.49H1810.06V1084.08H1830.31V1088.49ZM1830.31 1076.52H1810.06V1072.11H1830.31V1076.52ZM1830.31 1064.56H1810.06V1060.15H1830.31V1064.56ZM1830.31 1052.59H1810.06V1048.18H1830.31V1052.59ZM1830.31 1040.63H1810.06V1036.22H1830.31V1040.63ZM1830.31 1028.66H1810.06V1024.25H1830.31V1028.66ZM1830.31 1016.7H1810.06V1012.29H1830.31V1016.7ZM1830.31 1004.73H1810.06V1000.32H1830.31V1004.73ZM1830.31 992.767H1810.06V988.358H1830.31V992.767ZM1830.31 980.802H1810.06V976.393H1830.31V980.802ZM1830.31 968.837H1810.06V964.428H1830.31V968.837ZM1830.31 956.872H1810.06V952.463H1830.31V956.872ZM1830.31 944.907H1810.06V940.498H1830.31V944.907ZM1830.31 932.942H1810.06V928.534H1830.31V932.942ZM1830.31 920.977H1810.06V916.569H1830.31V920.977ZM1830.31 909.012H1810.06V904.604H1830.31V909.012ZM1830.31 897.048H1810.06V892.639H1830.31V897.048ZM1830.31 885.083H1810.06V880.674H1830.31V885.083ZM1830.31 873.118H1810.06V868.709H1830.31V873.118ZM1830.31 861.153H1810.06V856.744H1830.31V861.153ZM1830.31 849.188H1810.06V844.779H1830.31V849.188ZM1830.31 837.223H1810.06V832.814H1830.31V837.223ZM1830.31 825.258H1810.06V820.849H1830.31V825.258ZM1830.31 813.293H1810.06V808.885H1830.31V813.293ZM1830.31 801.328H1810.06V796.92H1830.31V801.328ZM1830.31 789.363H1810.06V784.955H1830.31V789.363ZM1830.31 777.399H1810.06V772.99H1830.31V777.399ZM1830.31 765.434H1810.06V761.025H1830.31V765.434ZM1830.31 753.469H1810.06V749.06H1830.31V753.469ZM1830.31 741.504H1810.06V737.095H1830.31V741.504ZM1830.31 729.539H1810.06V725.188H1830.31V729.597V729.539Z" fill="url(#paint5_linear_432_268)"/>
</g>
<g style="mix-blend-mode:overlay">
<path d="M1877.07 1145.04H1856.82V1142.99H1877.07V1145.04ZM1877.07 1135.43H1856.82V1131.03H1877.07V1135.43ZM1877.07 1123.47H1856.82V1119.06H1877.07V1123.47ZM1877.07 1111.5H1856.82V1107.1H1877.07V1111.5ZM1877.07 1099.54H1856.82V1095.13H1877.07V1099.54ZM1877.07 1087.57H1856.82V1083.17H1877.07V1087.57ZM1877.07 1075.61H1856.82V1071.2H1877.07V1075.61ZM1877.07 1063.64H1856.82V1059.24H1877.07V1063.64ZM1877.07 1051.68H1856.82V1047.27H1877.07V1051.68ZM1877.07 1039.71H1856.82V1035.31H1877.07V1039.71ZM1877.07 1027.75H1856.82V1023.34H1877.07V1027.75ZM1877.07 1015.78H1856.82V1011.38H1877.07V1015.78ZM1877.07 1003.82H1856.82V999.411H1877.07V1003.82ZM1877.07 991.855H1856.82V987.446H1877.07V991.855ZM1877.07 979.89H1856.82V975.481H1877.07V979.89ZM1877.07 967.925H1856.82V963.517H1877.07V967.925ZM1877.07 955.96H1856.82V951.552H1877.07V955.96ZM1877.07 943.995H1856.82V939.587H1877.07V943.995ZM1877.07 932.03H1856.82V927.622H1877.07V932.03ZM1877.07 920.066H1856.82V915.657H1877.07V920.066ZM1877.07 908.101H1856.82V903.692H1877.07V908.101ZM1877.07 896.136H1856.82V891.727H1877.07V896.136ZM1877.07 884.171H1856.82V879.762H1877.07V884.171ZM1877.07 872.206H1856.82V867.797H1877.07V872.206ZM1877.07 860.241H1856.82V855.832H1877.07V860.241ZM1877.07 848.276H1856.82V843.868H1877.07V848.276ZM1877.07 836.311H1856.82V831.903H1877.07V836.311ZM1877.07 824.346H1856.82V819.938H1877.07V824.346ZM1877.07 812.381H1856.82V807.973H1877.07V812.381ZM1877.07 800.417H1856.82V796.008H1877.07V800.417ZM1877.07 788.452H1856.82V784.043H1877.07V788.452ZM1877.07 776.487H1856.82V772.078H1877.07V776.487Z" fill="url(#paint6_linear_432_268)"/>
</g>
<g style="mix-blend-mode:overlay">
<path d="M1919.92 1094.59H1899.66V1092.54H1919.92V1094.59ZM1919.92 1084.98H1899.66V1080.57H1919.92V1084.98ZM1919.92 1073.01H1899.66V1068.61H1919.92V1073.01ZM1919.92 1061.05H1899.66V1056.64H1919.92V1061.05ZM1919.92 1049.08H1899.66V1044.68H1919.92V1049.08ZM1919.92 1037.12H1899.66V1032.71H1919.92V1037.12ZM1919.92 1025.16H1899.66V1020.75H1919.92V1025.16ZM1919.92 1013.19H1899.66V1008.78H1919.92V1013.19ZM1919.92 1001.23H1899.66V996.817H1919.92V1001.23ZM1919.92 989.26H1899.66V984.852H1919.92V989.26ZM1919.92 977.295H1899.66V972.887H1919.92V977.295ZM1919.92 965.331H1899.66V960.922H1919.92V965.331ZM1919.92 953.366H1899.66V948.957H1919.92V953.366ZM1919.92 941.401H1899.66V936.992H1919.92V941.401ZM1919.92 929.436H1899.66V925.027H1919.92V929.436ZM1919.92 917.471H1899.66V913.062H1919.92V917.471ZM1919.92 905.506H1899.66V901.097H1919.92V905.506ZM1919.92 893.541H1899.66V889.133H1919.92V893.541ZM1919.92 881.576H1899.66V877.168H1919.92V881.576ZM1919.92 869.611H1899.66V865.203H1919.92V869.611ZM1919.92 857.646H1899.66V853.238H1919.92V857.646ZM1919.92 845.682H1899.66V841.273H1919.92V845.682ZM1919.92 833.717H1899.66V829.308H1919.92V833.717ZM1919.92 821.752H1899.66V817.343H1919.92V821.752ZM1919.92 809.787H1899.66V805.378H1919.92V809.787ZM1919.92 797.822H1899.66V793.413H1919.92V797.822ZM1919.92 785.857H1899.66V781.448H1919.92V785.857ZM1919.92 773.892H1899.66V769.484H1919.92V773.892ZM1919.92 761.927H1899.66V757.519H1919.92V761.927ZM1919.92 749.962H1899.66V745.554H1919.92V749.962ZM1919.92 737.997H1899.66V733.589H1919.92V737.997ZM1919.92 726.033H1899.66V721.687H1919.92V726.096V726.033Z" fill="url(#paint7_linear_432_268)"/>
</g>
</g>
</g>
</g>
<g opacity="0.53">
<mask id="mask1_432_268" style="mask-type:luminance" maskUnits="userSpaceOnUse" x="1588" y="-5" width="332" height="362">
<path d="M1919.92 356.488H1588V-5.00012H1919.92V356.488Z" fill="white"/>
</mask>
<g mask="url(#mask1_432_268)">
<g style="mix-blend-mode:color-dodge">
<g style="mix-blend-mode:overlay">
<path d="M1608.25 -64.063H1588V-62.0115H1608.25V-64.063ZM1608.25 -54.4552H1588V-50.0466H1608.25V-54.4552ZM1608.25 -42.4903H1588V-38.0817H1608.25V-42.4903ZM1608.25 -30.5254H1588V-26.1168H1608.25V-30.5254ZM1608.25 -18.5605H1588V-14.1519H1608.25V-18.5605ZM1608.25 -6.59562H1588V-2.18697H1608.25V-6.59562ZM1608.25 5.3693H1588V9.77792H1608.25V5.3693ZM1608.25 17.3342H1588V21.7428H1608.25V17.3342ZM1608.25 29.2991H1588V33.7077H1608.25V29.2991ZM1608.25 41.264H1588V45.6726H1608.25V41.264ZM1608.25 53.2289H1588V57.6375H1608.25V53.2289ZM1608.25 65.1938H1588V69.6024H1608.25V65.1938ZM1608.25 77.1587H1588V81.5673H1608.25V77.1587ZM1608.25 89.1236H1588V93.5322H1608.25V89.1236ZM1608.25 101.088H1588V105.497H1608.25V101.088ZM1608.25 113.053H1588V117.462H1608.25V113.053ZM1608.25 125.018H1588V129.427H1608.25V125.018ZM1608.25 136.983H1588V141.392H1608.25V136.983ZM1608.25 148.948H1588V153.357H1608.25V148.948ZM1608.25 160.913H1588V165.322H1608.25V160.913ZM1608.25 172.878H1588V177.287H1608.25V172.878ZM1608.25 184.843H1588V189.251H1608.25V184.843ZM1608.25 196.808H1588V201.216H1608.25V196.808ZM1608.25 208.773H1588V213.181H1608.25V208.773ZM1608.25 220.737H1588V225.146H1608.25V220.737ZM1608.25 232.702H1588V237.111H1608.25V232.702ZM1608.25 244.667H1588V249.076H1608.25V244.667ZM1608.25 256.632H1588V261.041H1608.25V256.632ZM1608.25 268.597H1588V273.006H1608.25V268.597ZM1608.25 280.562H1588V284.971H1608.25V280.562ZM1608.25 292.527H1588V296.935H1608.25V292.527ZM1608.25 304.492H1588V308.9H1608.25V304.492Z" fill="url(#paint8_linear_432_268)"/>
</g>
<g style="mix-blend-mode:overlay">
<path d="M1651.09 -13.6136H1630.84V-11.562H1651.09V-13.6136ZM1651.09 -4.00575H1630.84V0.402869H1651.09V-4.00575ZM1651.09 7.95915H1630.84V12.3678H1651.09V7.95915ZM1651.09 19.924H1630.84V24.3327H1651.09V19.924ZM1651.09 31.889H1630.84V36.2976H1651.09V31.889ZM1651.09 43.8538H1630.84V48.2625H1651.09V43.8538ZM1651.09 55.8187H1630.84V60.2274H1651.09V55.8187ZM1651.09 67.7837H1630.84V72.1923H1651.09V67.7837ZM1651.09 79.7485H1630.84V84.1572H1651.09V79.7485ZM1651.09 91.7134H1630.84V96.1221H1651.09V91.7134ZM1651.09 103.678H1630.84V108.087H1651.09V103.678ZM1651.09 115.643H1630.84V120.052H1651.09V115.643ZM1651.09 127.608H1630.84V132.017H1651.09V127.608ZM1651.09 139.573H1630.84V143.982H1651.09V139.573ZM1651.09 151.538H1630.84V155.947H1651.09V151.538ZM1651.09 163.503H1630.84V167.911H1651.09V163.503ZM1651.09 175.468H1630.84V179.876H1651.09V175.468ZM1651.09 187.433H1630.84V191.841H1651.09V187.433ZM1651.09 199.398H1630.84V203.806H1651.09V199.398ZM1651.09 211.362H1630.84V215.771H1651.09V211.362ZM1651.09 223.327H1630.84V227.736H1651.09V223.327ZM1651.09 235.292H1630.84V239.701H1651.09V235.292ZM1651.09 247.257H1630.84V251.666H1651.09V247.257ZM1651.09 259.222H1630.84V263.631H1651.09V259.222ZM1651.09 271.187H1630.84V275.596H1651.09V271.187ZM1651.09 283.152H1630.84V287.56H1651.09V283.152ZM1651.09 295.117H1630.84V299.525H1651.09V295.117ZM1651.09 307.082H1630.84V311.49H1651.09V307.082ZM1651.09 319.047H1630.84V323.455H1651.09V319.047ZM1651.09 331.011H1630.84V335.42H1651.09V331.011ZM1651.09 342.976H1630.84V347.385H1651.09V342.976ZM1651.09 354.941H1630.84V359.35H1651.09V354.941Z" fill="url(#paint9_linear_432_268)"/>
</g>
<g style="mix-blend-mode:overlay">
<path d="M1697.86 -60.5616H1677.61V-58.51H1697.86V-60.5616ZM1697.86 -50.9537H1677.61V-46.5451H1697.86V-50.9537ZM1697.86 -38.9889H1677.61V-34.5802H1697.86V-38.9889ZM1697.86 -27.024H1677.61V-22.6153H1697.86V-27.024ZM1697.86 -15.0591H1677.61V-10.6504H1697.86V-15.0591ZM1697.86 -3.09415H1677.61V1.31446H1697.86V-3.09415ZM1697.86 8.87074H1677.61V13.2794H1697.86V8.87074ZM1697.86 20.8356H1677.61V25.2443H1697.86V20.8356ZM1697.86 32.8005H1677.61V37.2092H1697.86V32.8005ZM1697.86 44.7654H1677.61V49.1741H1697.86V44.7654ZM1697.86 56.7303H1677.61V61.139H1697.86V56.7303ZM1697.86 68.6952H1677.61V73.1039H1697.86V68.6952ZM1697.86 80.6602H1677.61V85.0688H1697.86V80.6602ZM1697.86 92.625H1677.61V97.0337H1697.86V92.625ZM1697.86 104.59H1677.61V108.999H1697.86V104.59ZM1697.86 116.555H1677.61V120.963H1697.86V116.555ZM1697.86 128.52H1677.61V132.928H1697.86V128.52ZM1697.86 140.485H1677.61V144.893H1697.86V140.485ZM1697.86 152.45H1677.61V156.858H1697.86V152.45ZM1697.86 164.414H1677.61V168.823H1697.86V164.414ZM1697.86 176.379H1677.61V180.788H1697.86V176.379ZM1697.86 188.344H1677.61V192.753H1697.86V188.344ZM1697.86 200.309H1677.61V204.718H1697.86V200.309ZM1697.86 212.274H1677.61V216.683H1697.86V212.274ZM1697.86 224.239H1677.61V228.648H1697.86V224.239ZM1697.86 236.204H1677.61V240.612H1697.86V236.204ZM1697.86 248.169H1677.61V252.577H1697.86V248.169ZM1697.86 260.134H1677.61V264.542H1697.86V260.134ZM1697.86 272.099H1677.61V276.507H1697.86V272.099ZM1697.86 284.063H1677.61V288.472H1697.86V284.063ZM1697.86 296.028H1677.61V300.437H1697.86V296.028ZM1697.86 307.993H1677.61V312.402H1697.86V307.993Z" fill="url(#paint10_linear_432_268)"/>
</g>
<g style="mix-blend-mode:overlay">
<path d="M1740.7 -10.1072H1720.45V-8.05567H1740.7V-10.1072ZM1740.7 -0.499398H1720.45V3.90925H1740.7V-0.499398ZM1740.7 11.4655H1720.45V15.8741H1740.7V11.4655ZM1740.7 23.4304H1720.45V27.839H1740.7V23.4304ZM1740.7 35.3953H1720.45V39.8039H1740.7V35.3953ZM1740.7 47.3602H1720.45V51.7688H1740.7V47.3602ZM1740.7 59.3251H1720.45V63.7337H1740.7V59.3251ZM1740.7 71.29H1720.45V75.6986H1740.7V71.29ZM1740.7 83.2549H1720.45V87.6635H1740.7V83.2549ZM1740.7 95.2198H1720.45V99.6284H1740.7V95.2198ZM1740.7 107.185H1720.45V111.593H1740.7V107.185ZM1740.7 119.15H1720.45V123.558H1740.7V119.15ZM1740.7 131.114H1720.45V135.523H1740.7V131.114ZM1740.7 143.079H1720.45V147.488H1740.7V143.079ZM1740.7 155.044H1720.45V159.453H1740.7V155.044ZM1740.7 167.009H1720.45V171.418H1740.7V167.009ZM1740.7 178.974H1720.45V183.383H1740.7V178.974ZM1740.7 190.939H1720.45V195.348H1740.7V190.939ZM1740.7 202.904H1720.45V207.313H1740.7V202.904ZM1740.7 214.869H1720.45V219.277H1740.7V214.869ZM1740.7 226.834H1720.45V231.242H1740.7V226.834ZM1740.7 238.799H1720.45V243.207H1740.7V238.799ZM1740.7 250.763H1720.45V255.172H1740.7V250.763ZM1740.7 262.728H1720.45V267.137H1740.7V262.728ZM1740.7 274.693H1720.45V279.102H1740.7V274.693ZM1740.7 286.658H1720.45V291.067H1740.7V286.658ZM1740.7 298.623H1720.45V303.032H1740.7V298.623ZM1740.7 310.588H1720.45V314.997H1740.7V310.588ZM1740.7 322.553H1720.45V326.962H1740.7V322.553ZM1740.7 334.518H1720.45V338.926H1740.7V334.518ZM1740.7 346.483H1720.45V350.891H1740.7V346.483ZM1740.7 358.448H1720.45V362.856H1740.7V358.448Z" fill="url(#paint11_linear_432_268)"/>
</g>
<g style="mix-blend-mode:overlay">
<path d="M1787.47 -57.055H1767.21V-55.0034H1787.47V-57.055ZM1787.47 -47.4472H1767.21V-43.0385H1787.47V-47.4472ZM1787.47 -35.4823H1767.21V-31.0736H1787.47V-35.4823ZM1787.47 -23.5173H1767.21V-19.1087H1787.47V-23.5173ZM1787.47 -11.5525H1767.21V-7.14384H1787.47V-11.5525ZM1787.47 0.41244H1767.21V4.82108H1787.47V0.41244ZM1787.47 12.3773H1767.21V16.786H1787.47V12.3773ZM1787.47 24.3423H1767.21V28.7509H1787.47V24.3423ZM1787.47 36.3071H1767.21V40.7158H1787.47V36.3071ZM1787.47 48.272H1767.21V52.6807H1787.47V48.272ZM1787.47 60.2369H1767.21V64.6456H1787.47V60.2369ZM1787.47 72.2018H1767.21V76.6105H1787.47V72.2018ZM1787.47 84.1667H1767.21V88.5754H1787.47V84.1667ZM1787.47 96.1316H1767.21V100.54H1787.47V96.1316ZM1787.47 108.097H1767.21V112.505H1787.47V108.097ZM1787.47 120.061H1767.21V124.47H1787.47V120.061ZM1787.47 132.026H1767.21V136.435H1787.47V132.026ZM1787.47 143.991H1767.21V148.4H1787.47V143.991ZM1787.47 155.956H1767.21V160.365H1787.47V155.956ZM1787.47 167.921H1767.21V172.33H1787.47V167.921ZM1787.47 179.886H1767.21V184.295H1787.47V179.886ZM1787.47 191.851H1767.21V196.259H1787.47V191.851ZM1787.47 203.816H1767.21V208.224H1787.47V203.816ZM1787.47 215.781H1767.21V220.189H1787.47V215.781ZM1787.47 227.746H1767.21V232.154H1787.47V227.746ZM1787.47 239.71H1767.21V244.119H1787.47V239.71ZM1787.47 251.675H1767.21V256.084H1787.47V251.675ZM1787.47 263.64H1767.21V268.049H1787.47V263.64ZM1787.47 275.605H1767.21V280.014H1787.47V275.605ZM1787.47 287.57H1767.21V291.979H1787.47V287.57ZM1787.47 299.535H1767.21V303.944H1787.47V299.535ZM1787.47 311.5H1767.21V315.908H1787.47V311.5Z" fill="url(#paint12_linear_432_268)"/>
</g>
<g style="mix-blend-mode:overlay">
<path d="M1830.31 -6.60543H1810.06V-4.5539H1830.31V-6.60543ZM1830.31 3.00238H1810.06V7.411H1830.31V3.00238ZM1830.31 14.9673H1810.06V19.3759H1830.31V14.9673ZM1830.31 26.9322H1810.06V31.3408H1830.31V26.9322ZM1830.31 38.8971H1810.06V43.3057H1830.31V38.8971ZM1830.31 50.862H1810.06V55.2706H1830.31V50.862ZM1830.31 62.8269H1810.06V67.2355H1830.31V62.8269ZM1830.31 74.7918H1810.06V79.2004H1830.31V74.7918ZM1830.31 86.7567H1810.06V91.1653H1830.31V86.7567ZM1830.31 98.7216H1810.06V103.13H1830.31V98.7216ZM1830.31 110.686H1810.06V115.095H1830.31V110.686ZM1830.31 122.651H1810.06V127.06H1830.31V122.651ZM1830.31 134.616H1810.06V139.025H1830.31V134.616ZM1830.31 146.581H1810.06V150.99H1830.31V146.581ZM1830.31 158.546H1810.06V162.955H1830.31V158.546ZM1830.31 170.511H1810.06V174.92H1830.31V170.511ZM1830.31 182.476H1810.06V186.885H1830.31V182.476ZM1830.31 194.441H1810.06V198.849H1830.31V194.441ZM1830.31 206.406H1810.06V210.814H1830.31V206.406ZM1830.31 218.371H1810.06V222.779H1830.31V218.371ZM1830.31 230.335H1810.06V234.744H1830.31V230.335ZM1830.31 242.3H1810.06V246.709H1830.31V242.3ZM1830.31 254.265H1810.06V258.674H1830.31V254.265ZM1830.31 266.23H1810.06V270.639H1830.31V266.23ZM1830.31 278.195H1810.06V282.604H1830.31V278.195ZM1830.31 290.16H1810.06V294.569H1830.31V290.16ZM1830.31 302.125H1810.06V306.534H1830.31V302.125ZM1830.31 314.09H1810.06V318.498H1830.31V314.09ZM1830.31 326.055H1810.06V330.463H1830.31V326.055ZM1830.31 338.02H1810.06V342.428H1830.31V338.02ZM1830.31 349.984H1810.06V354.393H1830.31V349.984ZM1830.31 361.949H1810.06V366.3H1830.31V361.891V361.949Z" fill="url(#paint13_linear_432_268)"/>
</g>
<g style="mix-blend-mode:overlay">
<path d="M1877.07 -53.5533H1856.82V-51.5017H1877.07V-53.5533ZM1877.07 -43.9454H1856.82V-39.5368H1877.07V-43.9454ZM1877.07 -31.9805H1856.82V-27.5719H1877.07V-31.9805ZM1877.07 -20.0156H1856.82V-15.607H1877.07V-20.0156ZM1877.07 -8.05074H1856.82V-3.6421H1877.07V-8.05074ZM1877.07 3.91418H1856.82V8.32279H1877.07V3.91418ZM1877.07 15.8791H1856.82V20.2877H1877.07V15.8791ZM1877.07 27.844H1856.82V32.2526H1877.07V27.844ZM1877.07 39.8089H1856.82V44.2175H1877.07V39.8089ZM1877.07 51.7738H1856.82V56.1824H1877.07V51.7738ZM1877.07 63.7387H1856.82V68.1473H1877.07V63.7387ZM1877.07 75.7035H1856.82V80.1122H1877.07V75.7035ZM1877.07 87.6685H1856.82V92.0771H1877.07V87.6685ZM1877.07 99.6333H1856.82V104.042H1877.07V99.6333ZM1877.07 111.598H1856.82V116.007H1877.07V111.598ZM1877.07 123.563H1856.82V127.972H1877.07V123.563ZM1877.07 135.528H1856.82V139.937H1877.07V135.528ZM1877.07 147.493H1856.82V151.902H1877.07V147.493ZM1877.07 159.458H1856.82V163.866H1877.07V159.458ZM1877.07 171.423H1856.82V175.831H1877.07V171.423ZM1877.07 183.388H1856.82V187.796H1877.07V183.388ZM1877.07 195.353H1856.82V199.761H1877.07V195.353ZM1877.07 207.317H1856.82V211.726H1877.07V207.317ZM1877.07 219.282H1856.82V223.691H1877.07V219.282ZM1877.07 231.247H1856.82V235.656H1877.07V231.247ZM1877.07 243.212H1856.82V247.621H1877.07V243.212ZM1877.07 255.177H1856.82V259.586H1877.07V255.177ZM1877.07 267.142H1856.82V271.551H1877.07V267.142ZM1877.07 279.107H1856.82V283.515H1877.07V279.107ZM1877.07 291.072H1856.82V295.48H1877.07V291.072ZM1877.07 303.037H1856.82V307.445H1877.07V303.037ZM1877.07 315.002H1856.82V319.41H1877.07V315.002Z" fill="url(#paint14_linear_432_268)"/>
</g>
<g style="mix-blend-mode:overlay">
<path d="M1919.92 -3.09884H1899.66V-1.04731H1919.92V-3.09884ZM1919.92 6.50897H1899.66V10.9176H1919.92V6.50897ZM1919.92 18.4739H1899.66V22.8825H1919.92V18.4739ZM1919.92 30.4388H1899.66V34.8474H1919.92V30.4388ZM1919.92 42.4037H1899.66V46.8123H1919.92V42.4037ZM1919.92 54.3686H1899.66V58.7772H1919.92V54.3686ZM1919.92 66.3334H1899.66V70.7421H1919.92V66.3334ZM1919.92 78.2984H1899.66V82.707H1919.92V78.2984ZM1919.92 90.2633H1899.66V94.6719H1919.92V90.2633ZM1919.92 102.228H1899.66V106.637H1919.92V102.228ZM1919.92 114.193H1899.66V118.602H1919.92V114.193ZM1919.92 126.158H1899.66V130.567H1919.92V126.158ZM1919.92 138.123H1899.66V142.531H1919.92V138.123ZM1919.92 150.088H1899.66V154.496H1919.92V150.088ZM1919.92 162.053H1899.66V166.461H1919.92V162.053ZM1919.92 174.018H1899.66V178.426H1919.92V174.018ZM1919.92 185.982H1899.66V190.391H1919.92V185.982ZM1919.92 197.947H1899.66V202.356H1919.92V197.947ZM1919.92 209.912H1899.66V214.321H1919.92V209.912ZM1919.92 221.877H1899.66V226.286H1919.92V221.877ZM1919.92 233.842H1899.66V238.251H1919.92V233.842ZM1919.92 245.807H1899.66V250.216H1919.92V245.807ZM1919.92 257.772H1899.66V262.18H1919.92V257.772ZM1919.92 269.737H1899.66V274.145H1919.92V269.737ZM1919.92 281.702H1899.66V286.11H1919.92V281.702ZM1919.92 293.667H1899.66V298.075H1919.92V293.667ZM1919.92 305.631H1899.66V310.04H1919.92V305.631ZM1919.92 317.596H1899.66V322.005H1919.92V317.596ZM1919.92 329.561H1899.66V333.97H1919.92V329.561ZM1919.92 341.526H1899.66V345.935H1919.92V341.526ZM1919.92 353.491H1899.66V357.9H1919.92V353.491ZM1919.92 365.456H1899.66V369.802H1919.92V365.393V365.456Z" fill="url(#paint15_linear_432_268)"/>
</g>
</g>
</g>
</g>
<g opacity="0.53">
<mask id="mask2_432_268" style="mask-type:luminance" maskUnits="userSpaceOnUse" x="-13" y="735" width="332" height="362">
<path d="M-13.0001 735H318.918V1096.49H-13.0001V735Z" fill="white"/>
</mask>
<g mask="url(#mask2_432_268)">
<g style="mix-blend-mode:color-dodge">
<g style="mix-blend-mode:overlay">
<path d="M298.665 1155.55H318.918V1153.5H298.665V1155.55ZM298.665 1145.94H318.918V1141.54H298.665V1145.94ZM298.665 1133.98H318.918V1129.57H298.665V1133.98ZM298.665 1122.01H318.918V1117.61H298.665V1122.01ZM298.665 1110.05H318.918V1105.64H298.665V1110.05ZM298.665 1098.08H318.918V1093.68H298.665V1098.08ZM298.665 1086.12H318.918V1081.71H298.665V1086.12ZM298.665 1074.15H318.918V1069.75H298.665V1074.15ZM298.665 1062.19H318.918V1057.78H298.665V1062.19ZM298.665 1050.22H318.918V1045.82H298.665V1050.22ZM298.665 1038.26H318.918V1033.85H298.665V1038.26ZM298.665 1026.29H318.918V1021.89H298.665V1026.29ZM298.665 1014.33H318.918V1009.92H298.665V1014.33ZM298.665 1002.37H318.918V997.957H298.665V1002.37ZM298.665 990.4H318.918V985.992H298.665V990.4ZM298.665 978.435H318.918V974.027H298.665V978.435ZM298.665 966.47H318.918V962.062H298.665V966.47ZM298.665 954.506H318.918V950.097H298.665V954.506ZM298.665 942.541H318.918V938.132H298.665V942.541ZM298.665 930.576H318.918V926.167H298.665V930.576ZM298.665 918.611H318.918V914.202H298.665V918.611ZM298.665 906.646H318.918V902.237H298.665V906.646ZM298.665 894.681H318.918V890.272H298.665V894.681ZM298.665 882.716H318.918V878.308H298.665V882.716ZM298.665 870.751H318.918V866.343H298.665V870.751ZM298.665 858.786H318.918V854.378H298.665V858.786ZM298.665 846.822H318.918V842.413H298.665V846.822ZM298.665 834.857H318.918V830.448H298.665V834.857ZM298.665 822.892H318.918V818.483H298.665V822.892ZM298.665 810.927H318.918V806.518H298.665V810.927ZM298.665 798.962H318.918V794.553H298.665V798.962ZM298.665 786.997H318.918V782.588H298.665V786.997Z" fill="url(#paint16_linear_432_268)"/>
</g>
<g style="mix-blend-mode:overlay">
<path d="M255.823 1105.1H276.076V1103.05H255.823V1105.1ZM255.823 1095.49H276.076V1091.09H255.823V1095.49ZM255.823 1083.53H276.076V1079.12H255.823V1083.53ZM255.823 1071.56H276.076V1067.16H255.823V1071.56ZM255.823 1059.6H276.076V1055.19H255.823V1059.6ZM255.823 1047.63H276.076V1043.23H255.823V1047.63ZM255.823 1035.67H276.076V1031.26H255.823V1035.67ZM255.823 1023.7H276.076V1019.3H255.823V1023.7ZM255.823 1011.74H276.076V1007.33H255.823V1011.74ZM255.823 999.775H276.076V995.366H255.823V999.775ZM255.823 987.81H276.076V983.402H255.823V987.81ZM255.823 975.845H276.076V971.437H255.823V975.845ZM255.823 963.88H276.076V959.472H255.823V963.88ZM255.823 951.915H276.076V947.507H255.823V951.915ZM255.823 939.951H276.076V935.542H255.823V939.951ZM255.823 927.986H276.076V923.577H255.823V927.986ZM255.823 916.021H276.076V911.612H255.823V916.021ZM255.823 904.056H276.076V899.647H255.823V904.056ZM255.823 892.091H276.076V887.682H255.823V892.091ZM255.823 880.126H276.076V875.717H255.823V880.126ZM255.823 868.161H276.076V863.753H255.823V868.161ZM255.823 856.196H276.076V851.788H255.823V856.196ZM255.823 844.231H276.076V839.823H255.823V844.231ZM255.823 832.266H276.076V827.858H255.823V832.266ZM255.823 820.302H276.076V815.893H255.823V820.302ZM255.823 808.337H276.076V803.928H255.823V808.337ZM255.823 796.372H276.076V791.963H255.823V796.372ZM255.823 784.407H276.076V779.998H255.823V784.407ZM255.823 772.442H276.076V768.033H255.823V772.442ZM255.823 760.477H276.076V756.068H255.823V760.477ZM255.823 748.512H276.076V744.104H255.823V748.512ZM255.823 736.547H276.076V732.139H255.823V736.547Z" fill="url(#paint17_linear_432_268)"/>
</g>
<g style="mix-blend-mode:overlay">
<path d="M209.058 1152.05H229.311V1150H209.058V1152.05ZM209.058 1142.44H229.311V1138.03H209.058V1142.44ZM209.058 1130.48H229.311V1126.07H209.058V1130.48ZM209.058 1118.51H229.311V1114.1H209.058V1118.51ZM209.058 1106.55H229.311V1102.14H209.058V1106.55ZM209.058 1094.58H229.311V1090.17H209.058V1094.58ZM209.058 1082.62H229.311V1078.21H209.058V1082.62ZM209.058 1070.65H229.311V1066.24H209.058V1070.65ZM209.058 1058.69H229.311V1054.28H209.058V1058.69ZM209.058 1046.72H229.311V1042.31H209.058V1046.72ZM209.058 1034.76H229.311V1030.35H209.058V1034.76ZM209.058 1022.79H229.311V1018.38H209.058V1022.79ZM209.058 1010.83H229.311V1006.42H209.058V1010.83ZM209.058 998.863H229.311V994.455H209.058V998.863ZM209.058 986.898H229.311V982.49H209.058V986.898ZM209.058 974.933H229.311V970.525H209.058V974.933ZM209.058 962.969H229.311V958.56H209.058V962.969ZM209.058 951.004H229.311V946.595H209.058V951.004ZM209.058 939.039H229.311V934.63H209.058V939.039ZM209.058 927.074H229.311V922.665H209.058V927.074ZM209.058 915.109H229.311V910.7H209.058V915.109ZM209.058 903.144H229.311V898.735H209.058V903.144ZM209.058 891.179H229.311V886.771H209.058V891.179ZM209.058 879.214H229.311V874.806H209.058V879.214ZM209.058 867.249H229.311V862.841H209.058V867.249ZM209.058 855.284H229.311V850.876H209.058V855.284ZM209.058 843.32H229.311V838.911H209.058V843.32ZM209.058 831.355H229.311V826.946H209.058V831.355ZM209.058 819.39H229.311V814.981H209.058V819.39ZM209.058 807.425H229.311V803.016H209.058V807.425ZM209.058 795.46H229.311V791.051H209.058V795.46ZM209.058 783.495H229.311V779.086H209.058V783.495Z" fill="url(#paint18_linear_432_268)"/>
</g>
<g style="mix-blend-mode:overlay">
<path d="M166.214 1101.6H186.467V1099.54H166.214V1101.6ZM166.214 1091.99H186.467V1087.58H166.214V1091.99ZM166.214 1080.02H186.467V1075.61H166.214V1080.02ZM166.214 1068.06H186.467V1063.65H166.214V1068.06ZM166.214 1056.09H186.467V1051.68H166.214V1056.09ZM166.214 1044.13H186.467V1039.72H166.214V1044.13ZM166.214 1032.16H186.467V1027.75H166.214V1032.16ZM166.214 1020.2H186.467V1015.79H166.214V1020.2ZM166.214 1008.23H186.467V1003.82H166.214V1008.23ZM166.214 996.269H186.467V991.86H166.214V996.269ZM166.214 984.304H186.467V979.895H166.214V984.304ZM166.214 972.339H186.467V967.93H166.214V972.339ZM166.214 960.374H186.467V955.965H166.214V960.374ZM166.214 948.409H186.467V944.001H166.214V948.409ZM166.214 936.444H186.467V932.036H166.214V936.444ZM166.214 924.479H186.467V920.071H166.214V924.479ZM166.214 912.514H186.467V908.106H166.214V912.514ZM166.214 900.55H186.467V896.141H166.214V900.55ZM166.214 888.585H186.467V884.176H166.214V888.585ZM166.214 876.62H186.467V872.211H166.214V876.62ZM166.214 864.655H186.467V860.246H166.214V864.655ZM166.214 852.69H186.467V848.281H166.214V852.69ZM166.214 840.725H186.467V836.316H166.214V840.725ZM166.214 828.76H186.467V824.352H166.214V828.76ZM166.214 816.795H186.467V812.387H166.214V816.795ZM166.214 804.83H186.467V800.422H166.214V804.83ZM166.214 792.865H186.467V788.457H166.214V792.865ZM166.214 780.901H186.467V776.492H166.214V780.901ZM166.214 768.936H186.467V764.527H166.214V768.936ZM166.214 756.971H186.467V752.562H166.214V756.971ZM166.214 745.006H186.467V740.597H166.214V745.006ZM166.214 733.041H186.467V728.632H166.214V733.041Z" fill="url(#paint19_linear_432_268)"/>
</g>
<g style="mix-blend-mode:overlay">
<path d="M119.452 1148.54H139.705V1146.49H119.452V1148.54ZM119.452 1138.94H139.705V1134.53H119.452V1138.94ZM119.452 1126.97H139.705V1122.56H119.452V1126.97ZM119.452 1115.01H139.705V1110.6H119.452V1115.01ZM119.452 1103.04H139.705V1098.63H119.452V1103.04ZM119.452 1091.08H139.705V1086.67H119.452V1091.08ZM119.452 1079.11H139.705V1074.7H119.452V1079.11ZM119.452 1067.15H139.705V1062.74H119.452V1067.15ZM119.452 1055.18H139.705V1050.77H119.452V1055.18ZM119.452 1043.22H139.705V1038.81H119.452V1043.22ZM119.452 1031.25H139.705V1026.84H119.452V1031.25ZM119.452 1019.29H139.705V1014.88H119.452V1019.29ZM119.452 1007.32H139.705V1002.91H119.452V1007.32ZM119.452 995.356H139.705V990.948H119.452V995.356ZM119.452 983.391H139.705V978.983H119.452V983.391ZM119.452 971.427H139.705V967.018H119.452V971.427ZM119.452 959.462H139.705V955.053H119.452V959.462ZM119.452 947.497H139.705V943.088H119.452V947.497ZM119.452 935.532H139.705V931.123H119.452V935.532ZM119.452 923.567H139.705V919.158H119.452V923.567ZM119.452 911.602H139.705V907.193H119.452V911.602ZM119.452 899.637H139.705V895.229H119.452V899.637ZM119.452 887.672H139.705V883.264H119.452V887.672ZM119.452 875.707H139.705V871.299H119.452V875.707ZM119.452 863.743H139.705V859.334H119.452V863.743ZM119.452 851.778H139.705V847.369H119.452V851.778ZM119.452 839.813H139.705V835.404H119.452V839.813ZM119.452 827.848H139.705V823.439H119.452V827.848ZM119.452 815.883H139.705V811.474H119.452V815.883ZM119.452 803.918H139.705V799.509H119.452V803.918ZM119.452 791.953H139.705V787.544H119.452V791.953ZM119.452 779.988H139.705V775.58H119.452V779.988Z" fill="url(#paint20_linear_432_268)"/>
</g>
<g style="mix-blend-mode:overlay">
<path d="M76.6083 1098.09H96.8613V1096.04H76.6083V1098.09ZM76.6083 1088.49H96.8613V1084.08H76.6083V1088.49ZM76.6083 1076.52H96.8613V1072.11H76.6083V1076.52ZM76.6083 1064.56H96.8613V1060.15H76.6083V1064.56ZM76.6083 1052.59H96.8613V1048.18H76.6083V1052.59ZM76.6083 1040.63H96.8613V1036.22H76.6083V1040.63ZM76.6083 1028.66H96.8613V1024.25H76.6083V1028.66ZM76.6083 1016.7H96.8613V1012.29H76.6083V1016.7ZM76.6083 1004.73H96.8613V1000.32H76.6083V1004.73ZM76.6083 992.767H96.8613V988.358H76.6083V992.767ZM76.6083 980.802H96.8613V976.393H76.6083V980.802ZM76.6083 968.837H96.8613V964.428H76.6083V968.837ZM76.6083 956.872H96.8613V952.463H76.6083V956.872ZM76.6083 944.907H96.8613V940.498H76.6083V944.907ZM76.6083 932.942H96.8613V928.534H76.6083V932.942ZM76.6083 920.977H96.8613V916.569H76.6083V920.977ZM76.6083 909.012H96.8613V904.604H76.6083V909.012ZM76.6083 897.048H96.8613V892.639H76.6083V897.048ZM76.6083 885.083H96.8613V880.674H76.6083V885.083ZM76.6083 873.118H96.8613V868.709H76.6083V873.118ZM76.6083 861.153H96.8613V856.744H76.6083V861.153ZM76.6083 849.188H96.8613V844.779H76.6083V849.188ZM76.6083 837.223H96.8613V832.814H76.6083V837.223ZM76.6083 825.258H96.8613V820.849H76.6083V825.258ZM76.6083 813.293H96.8613V808.885H76.6083V813.293ZM76.6083 801.328H96.8613V796.92H76.6083V801.328ZM76.6083 789.363H96.8613V784.955H76.6083V789.363ZM76.6083 777.399H96.8613V772.99H76.6083V777.399ZM76.6083 765.434H96.8613V761.025H76.6083V765.434ZM76.6083 753.469H96.8613V749.06H76.6083V753.469ZM76.6083 741.504H96.8613V737.095H76.6083V741.504ZM76.6083 729.539H96.8613V725.188H76.6083V729.597V729.539Z" fill="url(#paint21_linear_432_268)"/>
</g>
<g style="mix-blend-mode:overlay">
<path d="M29.8447 1145.04H50.0977V1142.99H29.8447V1145.04ZM29.8447 1135.43H50.0977V1131.03H29.8447V1135.43ZM29.8447 1123.47H50.0977V1119.06H29.8447V1123.47ZM29.8447 1111.5H50.0977V1107.1H29.8447V1111.5ZM29.8447 1099.54H50.0977V1095.13H29.8447V1099.54ZM29.8447 1087.57H50.0977V1083.17H29.8447V1087.57ZM29.8447 1075.61H50.0977V1071.2H29.8447V1075.61ZM29.8447 1063.64H50.0977V1059.24H29.8447V1063.64ZM29.8447 1051.68H50.0977V1047.27H29.8447V1051.68ZM29.8447 1039.71H50.0977V1035.31H29.8447V1039.71ZM29.8447 1027.75H50.0977V1023.34H29.8447V1027.75ZM29.8447 1015.78H50.0977V1011.38H29.8447V1015.78ZM29.8447 1003.82H50.0977V999.411H29.8447V1003.82ZM29.8447 991.855H50.0977V987.446H29.8447V991.855ZM29.8447 979.89H50.0977V975.481H29.8447V979.89ZM29.8447 967.925H50.0977V963.517H29.8447V967.925ZM29.8447 955.96H50.0977V951.552H29.8447V955.96ZM29.8447 943.995H50.0977V939.587H29.8447V943.995ZM29.8447 932.03H50.0977V927.622H29.8447V932.03ZM29.8447 920.066H50.0977V915.657H29.8447V920.066ZM29.8447 908.101H50.0977V903.692H29.8447V908.101ZM29.8447 896.136H50.0977V891.727H29.8447V896.136ZM29.8447 884.171H50.0977V879.762H29.8447V884.171ZM29.8447 872.206H50.0977V867.797H29.8447V872.206ZM29.8447 860.241H50.0977V855.832H29.8447V860.241ZM29.8447 848.276H50.0977V843.868H29.8447V848.276ZM29.8447 836.311H50.0977V831.903H29.8447V836.311ZM29.8447 824.346H50.0977V819.938H29.8447V824.346ZM29.8447 812.381H50.0977V807.973H29.8447V812.381ZM29.8447 800.417H50.0977V796.008H29.8447V800.417ZM29.8447 788.452H50.0977V784.043H29.8447V788.452ZM29.8447 776.487H50.0977V772.078H29.8447V776.487Z" fill="url(#paint22_linear_432_268)"/>
</g>
<g style="mix-blend-mode:overlay">
<path d="M-12.9991 1094.59H7.25391V1092.54H-12.9991V1094.59ZM-12.9991 1084.98H7.25391V1080.57H-12.9991V1084.98ZM-12.9991 1073.01H7.25391V1068.61H-12.9991V1073.01ZM-12.9991 1061.05H7.25391V1056.64H-12.9991V1061.05ZM-12.9991 1049.08H7.25391V1044.68H-12.9991V1049.08ZM-12.9991 1037.12H7.25391V1032.71H-12.9991V1037.12ZM-12.9991 1025.16H7.25391V1020.75H-12.9991V1025.16ZM-12.9991 1013.19H7.25391V1008.78H-12.9991V1013.19ZM-12.9991 1001.23H7.25391V996.817H-12.9991V1001.23ZM-12.9991 989.26H7.25391V984.852H-12.9991V989.26ZM-12.9991 977.295H7.25391V972.887H-12.9991V977.295ZM-12.9991 965.331H7.25391V960.922H-12.9991V965.331ZM-12.9991 953.366H7.25391V948.957H-12.9991V953.366ZM-12.9991 941.401H7.25391V936.992H-12.9991V941.401ZM-12.9991 929.436H7.25391V925.027H-12.9991V929.436ZM-12.9991 917.471H7.25391V913.062H-12.9991V917.471ZM-12.9991 905.506H7.25391V901.097H-12.9991V905.506ZM-12.9991 893.541H7.25391V889.133H-12.9991V893.541ZM-12.9991 881.576H7.25391V877.168H-12.9991V881.576ZM-12.9991 869.611H7.25391V865.203H-12.9991V869.611ZM-12.9991 857.646H7.25391V853.238H-12.9991V857.646ZM-12.9991 845.682H7.25391V841.273H-12.9991V845.682ZM-12.9991 833.717H7.25391V829.308H-12.9991V833.717ZM-12.9991 821.752H7.25391V817.343H-12.9991V821.752ZM-12.9991 809.787H7.25391V805.378H-12.9991V809.787ZM-12.9991 797.822H7.25391V793.413H-12.9991V797.822ZM-12.9991 785.857H7.25391V781.448H-12.9991V785.857ZM-12.9991 773.892H7.25391V769.484H-12.9991V773.892ZM-12.9991 761.927H7.25391V757.519H-12.9991V761.927ZM-12.9991 749.962H7.25391V745.554H-12.9991V749.962ZM-12.9991 737.997H7.25391V733.589H-12.9991V737.997ZM-12.9991 726.033H7.25391V721.687H-12.9991V726.096V726.033Z" fill="url(#paint23_linear_432_268)"/>
</g>
</g>
</g>
</g>
<g opacity="0.53">
<mask id="mask3_432_268" style="mask-type:luminance" maskUnits="userSpaceOnUse" x="-13" y="-5" width="332" height="362">
<path d="M-13.0001 356.488H318.918V-5.00012H-13.0001V356.488Z" fill="white"/>
</mask>
<g mask="url(#mask3_432_268)">
<g style="mix-blend-mode:color-dodge">
<g style="mix-blend-mode:overlay">
<path d="M298.665 -64.063H318.918V-62.0115H298.665V-64.063ZM298.665 -54.4552H318.918V-50.0466H298.665V-54.4552ZM298.665 -42.4903H318.918V-38.0817H298.665V-42.4903ZM298.665 -30.5254H318.918V-26.1168H298.665V-30.5254ZM298.665 -18.5605H318.918V-14.1519H298.665V-18.5605ZM298.665 -6.59562H318.918V-2.18697H298.665V-6.59562ZM298.665 5.3693H318.918V9.77792H298.665V5.3693ZM298.665 17.3342H318.918V21.7428H298.665V17.3342ZM298.665 29.2991H318.918V33.7077H298.665V29.2991ZM298.665 41.264H318.918V45.6726H298.665V41.264ZM298.665 53.2289H318.918V57.6375H298.665V53.2289ZM298.665 65.1938H318.918V69.6024H298.665V65.1938ZM298.665 77.1587H318.918V81.5673H298.665V77.1587ZM298.665 89.1236H318.918V93.5322H298.665V89.1236ZM298.665 101.088H318.918V105.497H298.665V101.088ZM298.665 113.053H318.918V117.462H298.665V113.053ZM298.665 125.018H318.918V129.427H298.665V125.018ZM298.665 136.983H318.918V141.392H298.665V136.983ZM298.665 148.948H318.918V153.357H298.665V148.948ZM298.665 160.913H318.918V165.322H298.665V160.913ZM298.665 172.878H318.918V177.287H298.665V172.878ZM298.665 184.843H318.918V189.251H298.665V184.843ZM298.665 196.808H318.918V201.216H298.665V196.808ZM298.665 208.773H318.918V213.181H298.665V208.773ZM298.665 220.737H318.918V225.146H298.665V220.737ZM298.665 232.702H318.918V237.111H298.665V232.702ZM298.665 244.667H318.918V249.076H298.665V244.667ZM298.665 256.632H318.918V261.041H298.665V256.632ZM298.665 268.597H318.918V273.006H298.665V268.597ZM298.665 280.562H318.918V284.971H298.665V280.562ZM298.665 292.527H318.918V296.935H298.665V292.527ZM298.665 304.492H318.918V308.9H298.665V304.492Z" fill="url(#paint24_linear_432_268)"/>
</g>
<g style="mix-blend-mode:overlay">
<path d="M255.823 -13.6136H276.076V-11.562H255.823V-13.6136ZM255.823 -4.00575H276.076V0.402869H255.823V-4.00575ZM255.823 7.95915H276.076V12.3678H255.823V7.95915ZM255.823 19.924H276.076V24.3327H255.823V19.924ZM255.823 31.889H276.076V36.2976H255.823V31.889ZM255.823 43.8538H276.076V48.2625H255.823V43.8538ZM255.823 55.8187H276.076V60.2274H255.823V55.8187ZM255.823 67.7837H276.076V72.1923H255.823V67.7837ZM255.823 79.7485H276.076V84.1572H255.823V79.7485ZM255.823 91.7134H276.076V96.1221H255.823V91.7134ZM255.823 103.678H276.076V108.087H255.823V103.678ZM255.823 115.643H276.076V120.052H255.823V115.643ZM255.823 127.608H276.076V132.017H255.823V127.608ZM255.823 139.573H276.076V143.982H255.823V139.573ZM255.823 151.538H276.076V155.947H255.823V151.538ZM255.823 163.503H276.076V167.911H255.823V163.503ZM255.823 175.468H276.076V179.876H255.823V175.468ZM255.823 187.433H276.076V191.841H255.823V187.433ZM255.823 199.398H276.076V203.806H255.823V199.398ZM255.823 211.362H276.076V215.771H255.823V211.362ZM255.823 223.327H276.076V227.736H255.823V223.327ZM255.823 235.292H276.076V239.701H255.823V235.292ZM255.823 247.257H276.076V251.666H255.823V247.257ZM255.823 259.222H276.076V263.631H255.823V259.222ZM255.823 271.187H276.076V275.596H255.823V271.187ZM255.823 283.152H276.076V287.56H255.823V283.152ZM255.823 295.117H276.076V299.525H255.823V295.117ZM255.823 307.082H276.076V311.49H255.823V307.082ZM255.823 319.047H276.076V323.455H255.823V319.047ZM255.823 331.011H276.076V335.42H255.823V331.011ZM255.823 342.976H276.076V347.385H255.823V342.976ZM255.823 354.941H276.076V359.35H255.823V354.941Z" fill="url(#paint25_linear_432_268)"/>
</g>
<g style="mix-blend-mode:overlay">
<path d="M209.058 -60.5616H229.311V-58.51H209.058V-60.5616ZM209.058 -50.9537H229.311V-46.5451H209.058V-50.9537ZM209.058 -38.9889H229.311V-34.5802H209.058V-38.9889ZM209.058 -27.024H229.311V-22.6153H209.058V-27.024ZM209.058 -15.0591H229.311V-10.6504H209.058V-15.0591ZM209.058 -3.09415H229.311V1.31446H209.058V-3.09415ZM209.058 8.87074H229.311V13.2794H209.058V8.87074ZM209.058 20.8356H229.311V25.2443H209.058V20.8356ZM209.058 32.8005H229.311V37.2092H209.058V32.8005ZM209.058 44.7654H229.311V49.1741H209.058V44.7654ZM209.058 56.7303H229.311V61.139H209.058V56.7303ZM209.058 68.6952H229.311V73.1039H209.058V68.6952ZM209.058 80.6602H229.311V85.0688H209.058V80.6602ZM209.058 92.625H229.311V97.0337H209.058V92.625ZM209.058 104.59H229.311V108.999H209.058V104.59ZM209.058 116.555H229.311V120.963H209.058V116.555ZM209.058 128.52H229.311V132.928H209.058V128.52ZM209.058 140.485H229.311V144.893H209.058V140.485ZM209.058 152.45H229.311V156.858H209.058V152.45ZM209.058 164.414H229.311V168.823H209.058V164.414ZM209.058 176.379H229.311V180.788H209.058V176.379ZM209.058 188.344H229.311V192.753H209.058V188.344ZM209.058 200.309H229.311V204.718H209.058V200.309ZM209.058 212.274H229.311V216.683H209.058V212.274ZM209.058 224.239H229.311V228.648H209.058V224.239ZM209.058 236.204H229.311V240.612H209.058V236.204ZM209.058 248.169H229.311V252.577H209.058V248.169ZM209.058 260.134H229.311V264.542H209.058V260.134ZM209.058 272.099H229.311V276.507H209.058V272.099ZM209.058 284.063H229.311V288.472H209.058V284.063ZM209.058 296.028H229.311V300.437H209.058V296.028ZM209.058 307.993H229.311V312.402H209.058V307.993Z" fill="url(#paint26_linear_432_268)"/>
</g>
<g style="mix-blend-mode:overlay">
<path d="M166.214 -10.1072H186.467V-8.05567H166.214V-10.1072ZM166.214 -0.499398H186.467V3.90925H166.214V-0.499398ZM166.214 11.4655H186.467V15.8741H166.214V11.4655ZM166.214 23.4304H186.467V27.839H166.214V23.4304ZM166.214 35.3953H186.467V39.8039H166.214V35.3953ZM166.214 47.3602H186.467V51.7688H166.214V47.3602ZM166.214 59.3251H186.467V63.7337H166.214V59.3251ZM166.214 71.29H186.467V75.6986H166.214V71.29ZM166.214 83.2549H186.467V87.6635H166.214V83.2549ZM166.214 95.2198H186.467V99.6284H166.214V95.2198ZM166.214 107.185H186.467V111.593H166.214V107.185ZM166.214 119.15H186.467V123.558H166.214V119.15ZM166.214 131.114H186.467V135.523H166.214V131.114ZM166.214 143.079H186.467V147.488H166.214V143.079ZM166.214 155.044H186.467V159.453H166.214V155.044ZM166.214 167.009H186.467V171.418H166.214V167.009ZM166.214 178.974H186.467V183.383H166.214V178.974ZM166.214 190.939H186.467V195.348H166.214V190.939ZM166.214 202.904H186.467V207.313H166.214V202.904ZM166.214 214.869H186.467V219.277H166.214V214.869ZM166.214 226.834H186.467V231.242H166.214V226.834ZM166.214 238.799H186.467V243.207H166.214V238.799ZM166.214 250.763H186.467V255.172H166.214V250.763ZM166.214 262.728H186.467V267.137H166.214V262.728ZM166.214 274.693H186.467V279.102H166.214V274.693ZM166.214 286.658H186.467V291.067H166.214V286.658ZM166.214 298.623H186.467V303.032H166.214V298.623ZM166.214 310.588H186.467V314.997H166.214V310.588ZM166.214 322.553H186.467V326.962H166.214V322.553ZM166.214 334.518H186.467V338.926H166.214V334.518ZM166.214 346.483H186.467V350.891H166.214V346.483ZM166.214 358.448H186.467V362.856H166.214V358.448Z" fill="url(#paint27_linear_432_268)"/>
</g>
<g style="mix-blend-mode:overlay">
<path d="M119.452 -57.055H139.705V-55.0034H119.452V-57.055ZM119.452 -47.4472H139.705V-43.0385H119.452V-47.4472ZM119.452 -35.4823H139.705V-31.0736H119.452V-35.4823ZM119.452 -23.5173H139.705V-19.1087H119.452V-23.5173ZM119.452 -11.5525H139.705V-7.14384H119.452V-11.5525ZM119.452 0.41244H139.705V4.82108H119.452V0.41244ZM119.452 12.3773H139.705V16.786H119.452V12.3773ZM119.452 24.3423H139.705V28.7509H119.452V24.3423ZM119.452 36.3071H139.705V40.7158H119.452V36.3071ZM119.452 48.272H139.705V52.6807H119.452V48.272ZM119.452 60.2369H139.705V64.6456H119.452V60.2369ZM119.452 72.2018H139.705V76.6105H119.452V72.2018ZM119.452 84.1667H139.705V88.5754H119.452V84.1667ZM119.452 96.1316H139.705V100.54H119.452V96.1316ZM119.452 108.097H139.705V112.505H119.452V108.097ZM119.452 120.061H139.705V124.47H119.452V120.061ZM119.452 132.026H139.705V136.435H119.452V132.026ZM119.452 143.991H139.705V148.4H119.452V143.991ZM119.452 155.956H139.705V160.365H119.452V155.956ZM119.452 167.921H139.705V172.33H119.452V167.921ZM119.452 179.886H139.705V184.295H119.452V179.886ZM119.452 191.851H139.705V196.259H119.452V191.851ZM119.452 203.816H139.705V208.224H119.452V203.816ZM119.452 215.781H139.705V220.189H119.452V215.781ZM119.452 227.746H139.705V232.154H119.452V227.746ZM119.452 239.71H139.705V244.119H119.452V239.71ZM119.452 251.675H139.705V256.084H119.452V251.675ZM119.452 263.64H139.705V268.049H119.452V263.64ZM119.452 275.605H139.705V280.014H119.452V275.605ZM119.452 287.57H139.705V291.979H119.452V287.57ZM119.452 299.535H139.705V303.944H119.452V299.535ZM119.452 311.5H139.705V315.908H119.452V311.5Z" fill="url(#paint28_linear_432_268)"/>
</g>
<g style="mix-blend-mode:overlay">
<path d="M76.6083 -6.60543H96.8613V-4.5539H76.6083V-6.60543ZM76.6083 3.00238H96.8613V7.411H76.6083V3.00238ZM76.6083 14.9673H96.8613V19.3759H76.6083V14.9673ZM76.6083 26.9322H96.8613V31.3408H76.6083V26.9322ZM76.6083 38.8971H96.8613V43.3057H76.6083V38.8971ZM76.6083 50.862H96.8613V55.2706H76.6083V50.862ZM76.6083 62.8269H96.8613V67.2355H76.6083V62.8269ZM76.6083 74.7918H96.8613V79.2004H76.6083V74.7918ZM76.6083 86.7567H96.8613V91.1653H76.6083V86.7567ZM76.6083 98.7216H96.8613V103.13H76.6083V98.7216ZM76.6083 110.686H96.8613V115.095H76.6083V110.686ZM76.6083 122.651H96.8613V127.06H76.6083V122.651ZM76.6083 134.616H96.8613V139.025H76.6083V134.616ZM76.6083 146.581H96.8613V150.99H76.6083V146.581ZM76.6083 158.546H96.8613V162.955H76.6083V158.546ZM76.6083 170.511H96.8613V174.92H76.6083V170.511ZM76.6083 182.476H96.8613V186.885H76.6083V182.476ZM76.6083 194.441H96.8613V198.849H76.6083V194.441ZM76.6083 206.406H96.8613V210.814H76.6083V206.406ZM76.6083 218.371H96.8613V222.779H76.6083V218.371ZM76.6083 230.335H96.8613V234.744H76.6083V230.335ZM76.6083 242.3H96.8613V246.709H76.6083V242.3ZM76.6083 254.265H96.8613V258.674H76.6083V254.265ZM76.6083 266.23H96.8613V270.639H76.6083V266.23ZM76.6083 278.195H96.8613V282.604H76.6083V278.195ZM76.6083 290.16H96.8613V294.569H76.6083V290.16ZM76.6083 302.125H96.8613V306.534H76.6083V302.125ZM76.6083 314.09H96.8613V318.498H76.6083V314.09ZM76.6083 326.055H96.8613V330.463H76.6083V326.055ZM76.6083 338.02H96.8613V342.428H76.6083V338.02ZM76.6083 349.984H96.8613V354.393H76.6083V349.984ZM76.6083 361.949H96.8613V366.3H76.6083V361.891V361.949Z" fill="url(#paint29_linear_432_268)"/>
</g>
<g style="mix-blend-mode:overlay">
<path d="M29.8447 -53.5533H50.0977V-51.5017H29.8447V-53.5533ZM29.8447 -43.9454H50.0977V-39.5368H29.8447V-43.9454ZM29.8447 -31.9805H50.0977V-27.5719H29.8447V-31.9805ZM29.8447 -20.0156H50.0977V-15.607H29.8447V-20.0156ZM29.8447 -8.05074H50.0977V-3.6421H29.8447V-8.05074ZM29.8447 3.91418H50.0977V8.32279H29.8447V3.91418ZM29.8447 15.8791H50.0977V20.2877H29.8447V15.8791ZM29.8447 27.844H50.0977V32.2526H29.8447V27.844ZM29.8447 39.8089H50.0977V44.2175H29.8447V39.8089ZM29.8447 51.7738H50.0977V56.1824H29.8447V51.7738ZM29.8447 63.7387H50.0977V68.1473H29.8447V63.7387ZM29.8447 75.7035H50.0977V80.1122H29.8447V75.7035ZM29.8447 87.6685H50.0977V92.0771H29.8447V87.6685ZM29.8447 99.6333H50.0977V104.042H29.8447V99.6333ZM29.8447 111.598H50.0977V116.007H29.8447V111.598ZM29.8447 123.563H50.0977V127.972H29.8447V123.563ZM29.8447 135.528H50.0977V139.937H29.8447V135.528ZM29.8447 147.493H50.0977V151.902H29.8447V147.493ZM29.8447 159.458H50.0977V163.866H29.8447V159.458ZM29.8447 171.423H50.0977V175.831H29.8447V171.423ZM29.8447 183.388H50.0977V187.796H29.8447V183.388ZM29.8447 195.353H50.0977V199.761H29.8447V195.353ZM29.8447 207.317H50.0977V211.726H29.8447V207.317ZM29.8447 219.282H50.0977V223.691H29.8447V219.282ZM29.8447 231.247H50.0977V235.656H29.8447V231.247ZM29.8447 243.212H50.0977V247.621H29.8447V243.212ZM29.8447 255.177H50.0977V259.586H29.8447V255.177ZM29.8447 267.142H50.0977V271.551H29.8447V267.142ZM29.8447 279.107H50.0977V283.515H29.8447V279.107ZM29.8447 291.072H50.0977V295.48H29.8447V291.072ZM29.8447 303.037H50.0977V307.445H29.8447V303.037ZM29.8447 315.002H50.0977V319.41H29.8447V315.002Z" fill="url(#paint30_linear_432_268)"/>
</g>
<g style="mix-blend-mode:overlay">
<path d="M-12.9991 -3.09884H7.25391V-1.04731H-12.9991V-3.09884ZM-12.9991 6.50897H7.25391V10.9176H-12.9991V6.50897ZM-12.9991 18.4739H7.25391V22.8825H-12.9991V18.4739ZM-12.9991 30.4388H7.25391V34.8474H-12.9991V30.4388ZM-12.9991 42.4037H7.25391V46.8123H-12.9991V42.4037ZM-12.9991 54.3686H7.25391V58.7772H-12.9991V54.3686ZM-12.9991 66.3334H7.25391V70.7421H-12.9991V66.3334ZM-12.9991 78.2984H7.25391V82.707H-12.9991V78.2984ZM-12.9991 90.2633H7.25391V94.6719H-12.9991V90.2633ZM-12.9991 102.228H7.25391V106.637H-12.9991V102.228ZM-12.9991 114.193H7.25391V118.602H-12.9991V114.193ZM-12.9991 126.158H7.25391V130.567H-12.9991V126.158ZM-12.9991 138.123H7.25391V142.531H-12.9991V138.123ZM-12.9991 150.088H7.25391V154.496H-12.9991V150.088ZM-12.9991 162.053H7.25391V166.461H-12.9991V162.053ZM-12.9991 174.018H7.25391V178.426H-12.9991V174.018ZM-12.9991 185.982H7.25391V190.391H-12.9991V185.982ZM-12.9991 197.947H7.25391V202.356H-12.9991V197.947ZM-12.9991 209.912H7.25391V214.321H-12.9991V209.912ZM-12.9991 221.877H7.25391V226.286H-12.9991V221.877ZM-12.9991 233.842H7.25391V238.251H-12.9991V233.842ZM-12.9991 245.807H7.25391V250.216H-12.9991V245.807ZM-12.9991 257.772H7.25391V262.18H-12.9991V257.772ZM-12.9991 269.737H7.25391V274.145H-12.9991V269.737ZM-12.9991 281.702H7.25391V286.11H-12.9991V281.702ZM-12.9991 293.667H7.25391V298.075H-12.9991V293.667ZM-12.9991 305.631H7.25391V310.04H-12.9991V305.631ZM-12.9991 317.596H7.25391V322.005H-12.9991V317.596ZM-12.9991 329.561H7.25391V333.97H-12.9991V329.561ZM-12.9991 341.526H7.25391V345.935H-12.9991V341.526ZM-12.9991 353.491H7.25391V357.9H-12.9991V353.491ZM-12.9991 365.456H7.25391V369.802H-12.9991V365.393V365.456Z" fill="url(#paint31_linear_432_268)"/>
</g>
</g>
</g>
</g>
</g>
<defs>
<linearGradient id="paint0_linear_432_268" x1="1601.87" y1="1149.47" x2="1586.38" y2="792.027" gradientUnits="userSpaceOnUse">
<stop stop-color="#231F20"/>
<stop offset="0.99" stop-color="white" stop-opacity="0"/>
</linearGradient>
<linearGradient id="paint1_linear_432_268" x1="1644.71" y1="1099.02" x2="1629.22" y2="741.577" gradientUnits="userSpaceOnUse">
<stop stop-color="#231F20"/>
<stop offset="0.99" stop-color="white" stop-opacity="0"/>
</linearGradient>
<linearGradient id="paint2_linear_432_268" x1="1691.47" y1="1145.97" x2="1675.99" y2="788.525" gradientUnits="userSpaceOnUse">
<stop stop-color="#231F20"/>
<stop offset="0.99" stop-color="white" stop-opacity="0"/>
</linearGradient>
<linearGradient id="paint3_linear_432_268" x1="1734.32" y1="1095.51" x2="1718.83" y2="738.071" gradientUnits="userSpaceOnUse">
<stop stop-color="#231F20"/>
<stop offset="0.99" stop-color="white" stop-opacity="0"/>
</linearGradient>
<linearGradient id="paint4_linear_432_268" x1="1781.08" y1="1142.46" x2="1765.59" y2="785.018" gradientUnits="userSpaceOnUse">
<stop stop-color="#231F20"/>
<stop offset="0.99" stop-color="white" stop-opacity="0"/>
</linearGradient>
<linearGradient id="paint5_linear_432_268" x1="1823.92" y1="1092.01" x2="1808.43" y2="734.569" gradientUnits="userSpaceOnUse">
<stop stop-color="#231F20"/>
<stop offset="0.99" stop-color="white" stop-opacity="0"/>
</linearGradient>
<linearGradient id="paint6_linear_432_268" x1="1870.69" y1="1138.96" x2="1855.2" y2="781.517" gradientUnits="userSpaceOnUse">
<stop stop-color="#231F20"/>
<stop offset="0.99" stop-color="white" stop-opacity="0"/>
</linearGradient>
<linearGradient id="paint7_linear_432_268" x1="1913.53" y1="1088.51" x2="1898.04" y2="731.067" gradientUnits="userSpaceOnUse">
<stop stop-color="#231F20"/>
<stop offset="0.99" stop-color="white" stop-opacity="0"/>
</linearGradient>
<linearGradient id="paint8_linear_432_268" x1="1601.87" y1="-57.9811" x2="1586.38" y2="299.462" gradientUnits="userSpaceOnUse">
<stop stop-color="#231F20"/>
<stop offset="0.99" stop-color="white" stop-opacity="0"/>
</linearGradient>
<linearGradient id="paint9_linear_432_268" x1="1644.71" y1="-7.5317" x2="1629.22" y2="349.911" gradientUnits="userSpaceOnUse">
<stop stop-color="#231F20"/>
<stop offset="0.99" stop-color="white" stop-opacity="0"/>
</linearGradient>
<linearGradient id="paint10_linear_432_268" x1="1691.47" y1="-54.4797" x2="1675.99" y2="302.963" gradientUnits="userSpaceOnUse">
<stop stop-color="#231F20"/>
<stop offset="0.99" stop-color="white" stop-opacity="0"/>
</linearGradient>
<linearGradient id="paint11_linear_432_268" x1="1734.32" y1="-4.02532" x2="1718.83" y2="353.418" gradientUnits="userSpaceOnUse">
<stop stop-color="#231F20"/>
<stop offset="0.99" stop-color="white" stop-opacity="0"/>
</linearGradient>
<linearGradient id="paint12_linear_432_268" x1="1781.08" y1="-50.9731" x2="1765.59" y2="306.47" gradientUnits="userSpaceOnUse">
<stop stop-color="#231F20"/>
<stop offset="0.99" stop-color="white" stop-opacity="0"/>
</linearGradient>
<linearGradient id="paint13_linear_432_268" x1="1823.92" y1="-0.523554" x2="1808.43" y2="356.919" gradientUnits="userSpaceOnUse">
<stop stop-color="#231F20"/>
<stop offset="0.99" stop-color="white" stop-opacity="0"/>
</linearGradient>
<linearGradient id="paint14_linear_432_268" x1="1870.69" y1="-47.4714" x2="1855.2" y2="309.972" gradientUnits="userSpaceOnUse">
<stop stop-color="#231F20"/>
<stop offset="0.99" stop-color="white" stop-opacity="0"/>
</linearGradient>
<linearGradient id="paint15_linear_432_268" x1="1913.53" y1="2.98301" x2="1898.04" y2="360.421" gradientUnits="userSpaceOnUse">
<stop stop-color="#231F20"/>
<stop offset="0.99" stop-color="white" stop-opacity="0"/>
</linearGradient>
<linearGradient id="paint16_linear_432_268" x1="305.053" y1="1149.47" x2="320.54" y2="792.027" gradientUnits="userSpaceOnUse">
<stop stop-color="#231F20"/>
<stop offset="0.99" stop-color="white" stop-opacity="0"/>
</linearGradient>
<linearGradient id="paint17_linear_432_268" x1="262.207" y1="1099.02" x2="277.695" y2="741.577" gradientUnits="userSpaceOnUse">
<stop stop-color="#231F20"/>
<stop offset="0.99" stop-color="white" stop-opacity="0"/>
</linearGradient>
<linearGradient id="paint18_linear_432_268" x1="215.445" y1="1145.97" x2="230.932" y2="788.525" gradientUnits="userSpaceOnUse">
<stop stop-color="#231F20"/>
<stop offset="0.99" stop-color="white" stop-opacity="0"/>
</linearGradient>
<linearGradient id="paint19_linear_432_268" x1="172.601" y1="1095.51" x2="188.089" y2="738.071" gradientUnits="userSpaceOnUse">
<stop stop-color="#231F20"/>
<stop offset="0.99" stop-color="white" stop-opacity="0"/>
</linearGradient>
<linearGradient id="paint20_linear_432_268" x1="125.84" y1="1142.46" x2="141.327" y2="785.018" gradientUnits="userSpaceOnUse">
<stop stop-color="#231F20"/>
<stop offset="0.99" stop-color="white" stop-opacity="0"/>
</linearGradient>
<linearGradient id="paint21_linear_432_268" x1="82.9959" y1="1092.01" x2="98.4832" y2="734.569" gradientUnits="userSpaceOnUse">
<stop stop-color="#231F20"/>
<stop offset="0.99" stop-color="white" stop-opacity="0"/>
</linearGradient>
<linearGradient id="paint22_linear_432_268" x1="36.2322" y1="1138.96" x2="51.7195" y2="781.517" gradientUnits="userSpaceOnUse">
<stop stop-color="#231F20"/>
<stop offset="0.99" stop-color="white" stop-opacity="0"/>
</linearGradient>
<linearGradient id="paint23_linear_432_268" x1="-6.61152" y1="1088.51" x2="8.8758" y2="731.067" gradientUnits="userSpaceOnUse">
<stop stop-color="#231F20"/>
<stop offset="0.99" stop-color="white" stop-opacity="0"/>
</linearGradient>
<linearGradient id="paint24_linear_432_268" x1="305.053" y1="-57.9811" x2="320.54" y2="299.462" gradientUnits="userSpaceOnUse">
<stop stop-color="#231F20"/>
<stop offset="0.99" stop-color="white" stop-opacity="0"/>
</linearGradient>
<linearGradient id="paint25_linear_432_268" x1="262.207" y1="-7.5317" x2="277.695" y2="349.911" gradientUnits="userSpaceOnUse">
<stop stop-color="#231F20"/>
<stop offset="0.99" stop-color="white" stop-opacity="0"/>
</linearGradient>
<linearGradient id="paint26_linear_432_268" x1="215.445" y1="-54.4797" x2="230.932" y2="302.963" gradientUnits="userSpaceOnUse">
<stop stop-color="#231F20"/>
<stop offset="0.99" stop-color="white" stop-opacity="0"/>
</linearGradient>
<linearGradient id="paint27_linear_432_268" x1="172.601" y1="-4.02532" x2="188.089" y2="353.418" gradientUnits="userSpaceOnUse">
<stop stop-color="#231F20"/>
<stop offset="0.99" stop-color="white" stop-opacity="0"/>
</linearGradient>
<linearGradient id="paint28_linear_432_268" x1="125.84" y1="-50.9731" x2="141.327" y2="306.47" gradientUnits="userSpaceOnUse">
<stop stop-color="#231F20"/>
<stop offset="0.99" stop-color="white" stop-opacity="0"/>
</linearGradient>
<linearGradient id="paint29_linear_432_268" x1="82.9959" y1="-0.523554" x2="98.4832" y2="356.919" gradientUnits="userSpaceOnUse">
<stop stop-color="#231F20"/>
<stop offset="0.99" stop-color="white" stop-opacity="0"/>
</linearGradient>
<linearGradient id="paint30_linear_432_268" x1="36.2322" y1="-47.4714" x2="51.7195" y2="309.972" gradientUnits="userSpaceOnUse">
<stop stop-color="#231F20"/>
<stop offset="0.99" stop-color="white" stop-opacity="0"/>
</linearGradient>
<linearGradient id="paint31_linear_432_268" x1="-6.61152" y1="2.98301" x2="8.8758" y2="360.421" gradientUnits="userSpaceOnUse">
<stop stop-color="#231F20"/>
<stop offset="0.99" stop-color="white" stop-opacity="0"/>
</linearGradient>
<clipPath id="clip0_432_268">
<rect width="1920" height="1087" fill="white"/>
</clipPath>
</defs>
</svg>
