<svg width="42" height="42" viewBox="0 0 42 42" fill="none" xmlns="http://www.w3.org/2000/svg">
<path fill-rule="evenodd" clip-rule="evenodd" d="M31.5 17.9375C26.9115 17.9375 23.1875 21.6615 23.1875 26.25C23.1875 30.8385 26.9115 34.5625 31.5 34.5625C36.0885 34.5625 39.8125 30.8385 39.8125 26.25C39.8125 21.6615 36.0885 17.9375 31.5 17.9375ZM28.0963 28.0525L29.8463 29.8025C29.9771 29.9334 30.1341 30.0351 30.307 30.1011C30.4799 30.167 30.6648 30.1956 30.8496 30.185C31.0344 30.1745 31.2148 30.1249 31.3791 30.0397C31.5433 29.9545 31.6877 29.8355 31.8028 29.6905L35.154 25.466C35.3523 25.1917 35.4372 24.8514 35.3908 24.5161C35.3445 24.1808 35.1705 23.8763 34.9052 23.666C34.6399 23.4558 34.3037 23.356 33.9667 23.3875C33.6297 23.4189 33.3178 23.5793 33.096 23.835L30.6617 26.9062L29.953 26.1975C29.7056 25.9583 29.3741 25.8258 29.03 25.8287C28.6858 25.8315 28.3566 25.9694 28.1131 26.2126C27.8696 26.4558 27.7314 26.785 27.7283 27.1291C27.7251 27.4732 27.8573 27.8048 28.0963 28.0525Z" fill="#B02E0C"/>
<path fill-rule="evenodd" clip-rule="evenodd" d="M27.3927 17.0625H2.1875V28C2.1875 29.2757 2.695 30.5007 3.59625 31.4037C4.49964 32.3054 5.72367 32.812 7 32.8125H23.8735C22.2995 30.9886 21.4348 28.6591 21.4375 26.25C21.4381 24.3073 22.0007 22.4063 23.0573 20.7761C24.114 19.146 25.6196 17.8562 27.3927 17.0625ZM14.0018 24.9375H8.75C8.4019 24.9375 8.06806 25.0758 7.82192 25.3219C7.57578 25.5681 7.4375 25.9019 7.4375 26.25C7.4375 26.5981 7.57578 26.9319 7.82192 27.1781C8.06806 27.4242 8.4019 27.5625 8.75 27.5625H14.0018C14.3498 27.5625 14.6837 27.4242 14.9298 27.1781C15.176 26.9319 15.3143 26.5981 15.3143 26.25C15.3143 25.9019 15.176 25.5681 14.9298 25.3219C14.6837 25.0758 14.3498 24.9375 14.0018 24.9375ZM2.1875 14.4375H36.3125V12.25C36.3125 10.9743 35.805 9.74925 34.9037 8.84625C34.0004 7.94464 32.7763 7.43804 31.5 7.4375H7C5.72425 7.4375 4.49925 7.945 3.59625 8.84625C2.69464 9.74964 2.18804 10.9737 2.1875 12.25V14.4375Z" fill="#B02E0C"/>
</svg>
