<svg width="42" height="42" viewBox="0 0 42 42" fill="none" xmlns="http://www.w3.org/2000/svg">
<g clip-path="url(#clip0_254_1743)">
<path d="M21 16.9502C24.9415 16.9502 28.1367 13.755 28.1367 9.81348C28.1367 5.87198 24.9415 2.67676 21 2.67676C17.0585 2.67676 13.8633 5.87198 13.8633 9.81348C13.8633 13.755 17.0585 16.9502 21 16.9502Z" fill="#B02E0C"/>
<path d="M35.4375 16.9502C37.9293 16.9502 39.9492 14.9302 39.9492 12.4385C39.9492 9.94672 37.9293 7.92676 35.4375 7.92676C32.9457 7.92676 30.9258 9.94672 30.9258 12.4385C30.9258 14.9302 32.9457 16.9502 35.4375 16.9502Z" fill="#B02E0C"/>
<path d="M6.5625 16.9502C9.05425 16.9502 11.0742 14.9302 11.0742 12.4385C11.0742 9.94672 9.05425 7.92676 6.5625 7.92676C4.07075 7.92676 2.05078 9.94672 2.05078 12.4385C2.05078 14.9302 4.07075 16.9502 6.5625 16.9502Z" fill="#B02E0C"/>
<path d="M11.0078 21.0019C9.2318 19.5468 7.62341 19.7394 5.56992 19.7394C2.49867 19.7394 0 22.2233 0 25.2757V34.2343C0 35.5599 1.08199 36.6378 2.41254 36.6378C8.15686 36.6378 7.46484 36.7418 7.46484 36.3901C7.46484 30.042 6.71295 25.3867 11.0078 21.0019Z" fill="#B02E0C"/>
<path d="M22.9536 19.7721C19.3669 19.4729 16.2493 19.7755 13.5603 21.9951C9.06026 25.5996 9.92627 30.4528 9.92627 36.39C9.92627 37.9608 11.2043 39.2627 12.799 39.2627C30.1143 39.2627 30.8035 39.8213 31.8302 37.5474C32.167 36.7785 32.0747 37.0229 32.0747 29.6667C32.0747 23.8239 27.0156 19.7721 22.9536 19.7721ZM36.4306 19.7393C34.3658 19.7393 32.7663 19.5486 30.9927 21.0017C35.2555 25.354 34.5356 29.6917 34.5356 36.39C34.5356 36.7439 33.9612 36.6377 39.5018 36.6377C40.8799 36.6377 42.0005 35.5213 42.0005 34.1489V25.2756C42.0005 22.2232 39.5018 19.7393 36.4306 19.7393Z" fill="#B02E0C"/>
</g>
<defs>
<clipPath id="clip0_254_1743">
<rect width="42" height="42" fill="white"/>
</clipPath>
</defs>
</svg>
